<?xml version="1.0" encoding="UTF-8"?>
<svg width="752pt" height="752pt" version="1.1" viewBox="0 0 752 752" xmlns="http://www.w3.org/2000/svg">
 <path d="m567.4 243.38c2.2109-0.47266 3.9414 0.23828 5.2109 2.1328 12.625 22.102 9.3867 42.777-9.7148 62.039l0.47266 0.71094c1.2695 2.5234 5.6055 13.34 13.023 32.441 3.6367 9.3164 8.1328 17.68 13.508 25.102 1.4141 2.2109 1.2578 4.1836-0.48438 5.918l-9.2305 9.9453c-5.9961 6.4727-10.898 9.707-14.68 9.707-1.8945 0-8.7617-2.7617-20.602-8.2891-10.742-4.7344-17.285-7.1055-19.652-7.1055-5.0469 0-9.8711 3.7891-14.449 11.367l-14.441 30.309c-2.6797 5.3672-5.918 10.812-9.7148 16.34 0 8.0508 0.94141 17.914 2.8398 29.598l4.0273 26.285c0.32031 2.8398 3.2383 7.1055 8.7695 12.785l14.207 13.969c1.5742 1.5781 1.9688 3.3164 1.1836 5.2109-0.79688 2.0508-2.2109 3.0781-4.2617 3.0781h-24.633c-1.2578 0-2.3672-0.47266-3.3086-1.4219-8.9961-8.207-15.305-17.996-18.941-29.363v-0.47266c-2.0547-11.84-4.7344-23.441-8.0469-34.809-7.8984 3.7891-16.574 5.6836-26.047 5.6836-4.4219 0-8.8398-0.55469-13.266-1.6562-0.3125 1.2656-0.47266 2.9961-0.47266 5.2109 0 12.629 6.4727 29.125 19.418 49.488 1.1094 1.7383 1.1836 3.3164 0.24219 4.7344-0.79688 1.7383-2.2109 2.6055-4.2617 2.6055h-15.863c-1.7383 0-3.0078-0.78906-3.793-2.3672-13.895-21.469-22.023-34.57-24.391-39.309-2.5234-5.3672-3.7852-17.68-3.7852-36.938-6.6289-4.1055-12.637-7.5781-18-10.418 0.94141 3.1602 1.4258 6.2305 1.4258 9.2344 0 5.2109-4.2617 12.785-12.793 22.73-7.1055 8.207-10.656 13.734-10.656 16.574 0 3.1602 2.7656 10.102 8.2891 20.836l7.1055 12.312c0.79688 1.7383 0.79688 3.3164 0 4.7344-0.94141 1.7383-2.2812 2.6055-4.0273 2.6055h-20.602c-1.7383 0-2.9219-0.78906-3.5508-2.3672l-12.082-17.996c-5.2109-8.207-7.8125-14.68-7.8125-19.418 0-2.3672 0.55469-5.918 1.668-10.656 1.2578-5.5273 1.8867-9.0781 1.8867-10.656 0-3.7891-1.9688-8.0508-5.918-12.785l-9.4727-10.656c-10.414 8.5234-24.621 14.051-42.621 16.574-10.887 1.7383-19.574 10.973-26.047 27.703-4.5703 12.629-6.8633 23.441-6.8633 32.441v1.4219c0.47266 1.4219 0.3125 2.8398-0.47266 4.2617-1.1094 1.4219-2.4531 2.1328-4.0273 2.1328h-15.875c-1.2578 0-2.4453-0.55469-3.5508-1.6562-0.94141-1.1016-1.2578-2.2891-0.94141-3.5508 3.6367-43.57 11.766-69.691 24.391-78.379 11.055-7.8945 17.129-19.098 18.234-33.625 1.1094-17.367 8.1328-33.625 21.07-48.777 3.9492-4.5781 8.2109-8.4453 12.793-11.602-3.793-6.3125-6.9492-11.047-9.4727-14.207-4.2617-5.2109-10.656-7.8125-19.184-7.8125-9.4727 0-15.938 2.6836-19.418 8.0508-2.5234 4.2617-4.4219 11.285-5.6797 21.074-1.582 12.156-3.3203 20.129-5.2188 23.914-3.1523 6.9414-8.2891 11.211-15.391 12.785h-0.47266c-1.8945 0.47266-3.8633 0.71094-5.918 0.71094-11.367 0-20.203-4.8164-26.52-14.445l-0.24219-0.47266c-0.62891-0.78906-3.5508-6.9492-8.7617-18.469-0.78516-2.0508-0.38672-3.8711 1.1836-5.4453 1.7383-1.4219 3.6367-1.6562 5.6875-0.71094 7.7344 4.5742 12.781 7.1055 15.148 7.5781l6.8633-0.47266 0.71094-0.23828c8.8398 0 13.977 5.1289 15.391 15.391l0.47266 4.5c1.4258-1.2656 2.5352-2.7617 3.3203-4.5 1.582-2.8398 3.1523-9.9453 4.7344-21.312 1.0977-11.367 3.3945-19.652 6.8633-24.863 5.5312-8.3672 14.605-12.551 27.23-12.551 11.527 0 20.367 3.7891 26.52 11.367 3.4766 4.4219 6.8711 9.6289 10.184 15.629 8.3711-3.9453 17.215-5.4453 26.52-4.5 15.945 1.1016 29.84 0.71094 41.68-1.1836 10.742-4.2617 20.523-12.156 29.355-23.68 4.1055-6 13.023-10.891 26.758-14.68 15.789-4.2617 25.105-7.0234 27.941-8.2891l26.047-14.445c8.2109-3.7891 16.262-5.6836 24.152-5.6836 6.9492 0 13.422 0.47266 19.418 1.4219 3.0078-2.5273 6.7148-4.8164 11.137-6.8672 8.0469-2.9961 12.539-4.9727 13.496-5.918 3.6289-3.3164 5.4453-8.1328 5.4453-14.445-0.15625-0.31641-1.0273-4.1836-2.6094-11.602-0.47266-2.5234 0.39844-4.3438 2.6094-5.4453 2.6797-0.94531 4.6523-0.31641 5.918 1.8945l8.7617 13.734c2.8398 4.8906 4.0273 10.656 3.5508 17.285-0.47266 7.2656-5.4453 14.207-14.918 20.836l-1.8945 1.1836 6.6289 4.5c11.527-8.0508 17.52-21.156 18-39.309 0.32031-2.5195 1.5039-3.9414 3.5586-4.2578zm-154.62 64.645c-11.527 2.9961-18.867 6.7109-22.023 11.129-10.258 13.262-21.469 22.18-33.625 26.758l-0.95312 0.23828c-12.781 2.2109-27.621 2.6055-44.508 1.1836-9.1602-0.62891-17.527 1.2656-25.105 5.6836h-0.24219c-5.0469 2.8398-9.7852 6.8672-14.207 12.078-11.672 13.578-18.07 28.023-19.176 43.332-1.2695 17.84-8.5273 31.336-21.785 40.492-9.7852 6.6289-16.574 28.809-20.367 66.539h6.1602c0.3125-9.9453 2.7578-21.312 7.3359-34.098 7.5781-20.047 18.711-31.258 33.391-33.625 18.941-2.8398 32.754-8.6797 41.438-17.523 2.0547-2.5234 3.4648-4.3438 4.2617-5.4453l5.4375-8.5234c3.793-6.6289 8.2891-15.629 13.508-26.992 0.62891-1.1016 1.5742-1.8945 2.8398-2.3672 1.0977-0.47266 2.2812-0.47266 3.5508 0 1.0977 0.62891 1.8945 1.5781 2.3672 2.8398 0.47266 1.1016 0.47266 2.2109 0 3.3164l-11.609 22.969 20.129 0.23828c3.1641 0.3125 10.578 2.5234 22.262 6.6289l2.6016 0.94531c3.793 1.4219 11.137 5.3672 22.023 11.84l0.47266-18.941c-0.15625-1.2656 0.24219-2.3672 1.1836-3.3164 0.95312-0.94531 2.0547-1.4219 3.3203-1.4219 1.2578-0.15625 2.3672 0.23828 3.3086 1.1836 0.95312 0.94531 1.4258 2.0547 1.4258 3.3164 0.3125 3.6328 0.074219 12.707-0.71094 27.23 0.15625 19.418 1.1836 31.176 3.0781 35.281 1.7383 3.9453 9.0742 16.102 22.023 36.465h5.4375c-11.043-18.625-16.574-34.414-16.574-47.359 0-4.418 0.87109-8.6016 2.6094-12.551 2.0547-5.0547 5.3672-10.734 9.9453-17.051 7.418-9.7852 11.129-15.785 11.129-17.996-1.7305-16.262-2.4453-26.129-2.125-29.598 0.15625-1.2656 0.71094-2.3672 1.6562-3.3164 0.79688-0.78906 1.8242-1.1016 3.0781-0.94531 1.2695 0.15625 2.3672 0.71094 3.3086 1.6562 0.79688 0.94531 1.1094 2.0547 0.95312 3.3164 0 4.5781 0.78516 13.969 2.3672 28.18v0.47266c0 4.4219-4.2617 12.312-12.793 23.68-2.9961 4.1055-5.2109 7.5781-6.6211 10.418 2.9961 0.62891 6.1523 0.94531 9.4727 0.94531 9.7852 0 18.629-2.3672 26.52-7.1055l0.23047-0.23828c6.793-4.1055 13.109-10.184 18.941-18.234 3.1641-4.5742 6.4023-9.8633 9.7148-15.863l14.68-31.258c6.6289-10.574 14.207-15.863 22.738-15.863 3.9492 0 11.84 2.6055 23.68 7.8125 9.4727 4.4219 14.992 6.793 16.574 7.1055 1.7383-0.62891 4.3398-2.6797 7.8125-6.1562l6.8633-7.3398c-5.2109-8.0508-9.3867-16.102-12.551-24.152-6.9492-18.469-11.129-28.969-12.551-31.492l-2.125-3.0781-0.24219-0.47266c-3.3086-5.5273-6.707-9.7852-10.172-12.785l-0.24219-0.23828c-2.8398-2.3672-6.2305-4.6562-10.184-6.8672l-1.4141 1.8945c0.15625 0 0.54297 0.78906 1.1836 2.3672 1.0977 2.2109 2.7578 5.0547 4.9688 8.5234 0.79688 1.1016 1.0273 2.2891 0.71094 3.5508-0.3125 1.2656-1.0273 2.2109-2.125 2.8398-1.1094 0.78906-2.2109 1.0273-3.3203 0.71094-1.2578-0.3125-2.2109-1.0234-2.8398-2.1328-5.2109-7.7344-7.8125-13.023-7.8125-15.863 0-3.6328 2.1367-7.3398 6.3945-11.129 1.7383-2.0508 4.4219-4.1055 8.0547-6.1562 6.9492-5.0547 10.656-9.6289 11.129-13.734 0-2.6836-0.24219-5.2109-0.71094-7.5781-1.2578 5.5273-3.9414 10.027-8.0469 13.496-1.8945 1.8945-7.2617 4.5-16.102 7.8125-3.9492 1.7383-7.1055 3.7891-9.4727 6.1562l-0.24219 0.23828c-5.8359 5.8398-8.7617 14.289-8.7617 25.336 0 3.7891 0.79687 6.3945 2.3672 7.8125 2.2109 1.5781 6.793 3.1602 13.734 4.7344 1.2695 0.3125 2.2109 1.0234 2.8398 2.1328 0.79688 1.1016 1.0273 2.2891 0.71094 3.5508-0.15625 1.2656-0.87109 2.2109-2.125 2.8398-1.1094 0.62891-2.293 0.78906-3.5508 0.47266-8.6836-1.7383-14.52-3.8711-17.527-6.3945-3.7852-3.3164-5.6797-8.3672-5.6797-15.156 0-10.262 1.9688-18.707 5.918-25.336-2.5234-0.31641-6.5508-0.47266-12.082-0.47266-7.1055 0-13.809 1.5781-20.129 4.7344l-25.805 14.207c-3.4844 1.75-13.344 4.9023-29.602 9.4844zm144.91-8.7617c9.7852-10.262 13.965-20.992 12.551-32.203-2.9961 10.574-8.8398 19.336-17.527 26.285zm-77.199 165.75c-1.2578-8.3672-2.125-15.156-2.6016-20.363-3.9492 3.9453-7.6562 7.1055-11.129 9.4727 3.6289 12.629 6.6211 25.176 8.9883 37.648 2.8516 8.8398 7.7422 16.73 14.691 23.68h11.355l-5.918-6.1562c-7.1055-6.9492-10.969-12.941-11.598-17.996-1.0938-7.1055-2.3633-15.867-3.7891-26.285zm-301.91-92.113c4.2617 6.4727 10.742 9.5508 19.426 9.2344l-0.48438-6.1562c-0.62891-4.8984-2.6797-7.3398-6.1523-7.3398l-7.3438 0.71094c-1.7305 0.31641-4.4219-0.47266-8.0469-2.3672zm159.61 52.332-23.68-0.23828-6.1602 8.5234c2.3672 3.1602 5.5312 6.8672 9.4727 11.129 5.6875 6.4727 8.5273 12.863 8.5273 19.18 0 2.8398-0.71094 7.0234-2.1367 12.551-0.94141 4.2617-1.4141 7.1836-1.4141 8.7617 0 2.9961 2.125 7.7344 6.3945 14.207 4.1055 6 7.5781 11.367 10.414 16.102h9.9531l-3.0781-5.918c-6.4727-11.996-9.7148-20.363-9.7148-25.102 0-5.0547 4.3477-12.629 13.023-22.73 7.1055-8.3672 10.656-13.891 10.656-16.574 0-2.6797-0.47266-5.3672-1.4141-8.0508l-2.1367-6.1562c-7.582-2.6875-13.816-4.582-18.707-5.6836z" fill-rule="evenodd"/>
</svg>
