<?xml version="1.0" encoding="UTF-8"?>
<svg width="752pt" height="752pt" version="1.1" viewBox="0 0 752 752" xmlns="http://www.w3.org/2000/svg">
 <defs>
  <clipPath id="a">
   <path d="m207 139.21h338v473.58h-338z"/>
  </clipPath>
 </defs>
 <g clip-path="url(#a)">
  <path d="m544.72 398.65c-0.25391-7.2422-0.77344-14.48-1.5508-21.516-0.78125-7.1523-1.8516-14.387-3.1797-21.504-1.3242-7.1367-2.957-14.375-4.8438-21.508-1.8945-7.1836-4.0977-14.418-6.543-21.5-2.457-7.1406-5.2578-14.367-8.3203-21.484-3.1016-7.2227-6.543-14.453-10.234-21.496-3.8477-7.3555-8.0156-14.586-12.391-21.496-6.1367-9.6758-11.191-16.375-13.934-19.828 1.9961-2.6602 2.9961-6.0547 2.6797-9.5195-0.43359-4.7852-3.2383-8.7227-7.6992-10.805l-42.391-19.828-1.5977 3.4141v-0.019531l1.5859-3.3945-42.445-19.848c1.418-2.7891 2.1875-5.8867 2.1875-9.0625 0-11.051-8.9922-20.043-20.043-20.043-11.047 0-20.035 8.9922-20.035 20.043 0 3.1719 0.76953 6.2695 2.1836 9.0586l-42.449 19.852 1.5859 3.3945v0.019531l-1.5977-3.4141-42.395 19.824c-4.4531 2.082-7.2578 6.0156-7.6914 10.793-0.3125 3.4141 0.65234 6.7617 2.5898 9.4062-3.832 4.5586-9.582 12.633-14.125 19.758-4.4062 6.9297-8.5781 14.18-12.406 21.547-3.5742 6.8711-6.9961 14.121-10.168 21.559-2.9805 7.0117-5.7422 14.262-8.207 21.543-2.4102 7.0977-4.5781 14.348-6.4297 21.539-1.8516 7.1289-3.4531 14.363-4.7578 21.5-1.3086 7.1172-2.3672 14.348-3.1484 21.492-0.79297 7.1641-1.332 14.398-1.6094 21.504-0.125 3.2695-0.19922 6.5312-0.21875 9.6836-0.027344 4.0625 0.089844 8.082 0.35547 11.926 0.45703 7.2188 1.4102 14.539 2.832 21.754 1.4219 7.2734 3.3359 14.586 5.6914 21.727 2.3711 7.2305 5.2656 14.527 8.5898 21.68 3.3164 7.1602 7.1992 14.434 11.543 21.617 4.3281 7.1758 9.2422 14.43 14.609 21.555 5.4609 7.2656 11.48 14.496 17.891 21.488 6.7695 7.3867 14.047 14.598 21.633 21.445 7.9844 7.1797 14.738 12.531 19.238 15.922-0.63672 0.45312-1.25 0.95312-1.8164 1.5156-2.6367 2.6367-4.0898 6.1406-4.0898 9.875 0 7.7031 6.2656 13.973 13.965 13.973h116.87c3.7227 0 7.2305-1.4492 9.8906-4.0977 2.6328-2.6445 4.082-6.1523 4.082-9.875 0-4.7109-2.3516-8.875-5.9375-11.402 4.4883-3.4062 11.227-8.7812 19.199-16 7.5352-6.8164 14.789-14.043 21.57-21.484 6.3828-7.0078 12.383-14.246 17.84-21.516 5.3359-7.125 10.23-14.371 14.551-21.539l-3.2148-1.9375v-0.003906l3.2227 1.9453c4.2695-7.0703 8.1445-14.336 11.523-21.594 3.3203-7.1367 6.2148-14.414 8.5977-21.633l-3.5625-1.1758v-0.003906l3.5742 1.1797c2.3789-7.1992 4.3086-14.492 5.7422-21.672 1.4453-7.168 2.4336-14.473 2.9375-21.703 0.28906-3.9062 0.43359-7.9219 0.43359-11.938 0-3.1445-0.054688-6.4023-0.16406-9.6914zm-82.098 81.297-10.941-13.711h75.223c-1.6602 4.582-3.5391 9.168-5.5898 13.711zm-232.24 0c-2.043-4.543-3.9141-9.1289-5.5625-13.711h75.508l-10.941 13.711zm25.973-183.57-9.4648 13.711h-14.766c1.6562-4.625 3.4375-9.2109 5.3008-13.711zm257.97 0c1.918 4.5547 3.7305 9.1367 5.3984 13.711h-14.605l-9.4688-13.711zm-75.523-62.805-6.9688 12.824h-111.66l-6.9688-12.824zm-2.9023 253.89-10.938 13.719h-24.234l10.938-13.719zm-44.789 56.184h-30.223l-10.938-13.719h52.098zm-75.008-56.184h24.242l10.934 13.719h-24.238zm27.859-42.461h24.238l-10.934 13.719h-24.238zm41.156 34.945h-18.238l9.1211-11.438zm0.003906 7.5156-9.1211 11.445-9.1211-11.445zm-35.164 0h7.3086l10.934 13.719h-7.3086zm41.156 13.719h-7.3125l10.934-13.719h7.3164zm-24.238-42.461 9.125-11.449 9.1289 11.449zm16.93-13.719h24.234l10.938 13.719h-24.234zm-33.852-7.5195 10.938-13.719h30.223l10.938 13.719zm70.348-169.86h-88.605l-7.4492-13.711h103.5zm-4.082 7.5195-7.4531 13.719h-65.531l-7.4531-13.719zm-151.11 63.699h68.668l-11.699 13.719h-50.883zm73.887 34.945 10.562-13.711h52.895l10.562 13.711zm26.922-34.945h20.168l10.57 13.719h-41.309zm0.38672-7.5195-7.4531-13.719h34.301l-7.4531 13.719zm27.953 0 7.4531-13.719h14.09l-7.8906 13.719zm2.9805-21.234h-42.469l-7.4492-13.711h57.363zm-46.941 7.5156 7.4531 13.719h-13.652l-7.8906-13.719zm-10.23 42.473-10.562 13.711h-15.652l11.691-13.711zm-56.117 21.227h13.613l-8.9531 10.496zm49.254 0h34.918l-10.953 13.719h-34.535zm42.801 23.508 9.1172 11.438h-18.234zm-9.2148-9.7891 9.2227-11.555 9.2227 11.555zm17.105-13.719h34.91l10.57 13.719h-34.527zm79.516 10.496-8.9531-10.496h13.609zm-40.906-18.012-10.562-13.711h14.527l11.695 13.711zm-4.2734-34.945h68.668l-6.0859 13.719h-50.879zm-1.6484-7.5195 7.8867-13.719h50.961l9.8984 13.719zm53.426-21.234h-41.215l7.8828-13.711h23.438zm-146.79 0h-41.215l9.8945-13.711h23.438zm4.3242 7.5156 7.8867 13.719h-68.75l9.8984-13.719zm-11.875 42.473-11.691 13.711h-23.359l-6.082-13.711zm35.504 42.461-10.941 13.711h-33.949l10.562-13.711zm49.676 0h34.324l10.562 13.711h-33.945zm47.199-28.75-11.695-13.711h41.133l-6.082 13.711zm46.559-42.465-9.8984-13.719h16.477l9.4727 13.719zm-53.605-42.461 6.0703-10.559 7.6211 10.559zm-8.668 0h-15.004l7.4531-13.719h15.438zm-105.1-13.719 7.4531 13.719h-15.004l-7.8867-13.719zm-16.219 13.719h-13.691l7.6211-10.559zm-43.707 28.742-9.8984 13.719h-16.043l9.4727-13.719zm-1 42.473 6.082 13.711h-16.531l-6.207-13.711zm41.047 42.461-10.562 13.711h-21.707l-6.207-13.711zm-6.8672 21.227h33.742l-10.949 13.719h-33.363zm43.359 0h7.4336l-10.938 13.719h-7.4492zm7.4297 42.473-10.926 13.711h-24.242l10.93-13.711zm6 42.465 10.93 13.711h-24.238l-10.93-13.711zm27.848 42.461-9.1172 11.438-9.1172-11.438zm-1.3125-28.754 10.93-13.711h24.234l-10.93 13.711zm27.859-42.461-10.93-13.711h24.234l10.93 13.711zm-0.003907-42.465-10.938-13.719h7.4414l10.949 13.719zm6.1211-13.719h33.734l10.57 13.719h-33.355zm37.434-7.5156-10.562-13.711h38.48l-6.2109 13.711zm24.406-42.461 6.082-13.711h16.664l-6.2109 13.711zm30.996-13.711h22.523c0.79688 4.5547 1.4883 9.1367 2.0586 13.711h-30.793zm3.4023-7.5156 6.2148-13.719h8.3555c1.1602 4.5625 2.2109 9.1484 3.1367 13.719zm5.7617-21.238-9.4727-13.719h12.031c1.5234 4.543 2.9453 9.1289 4.2422 13.719zm-55.824-42.461-9.8984-13.719h17.797l9.4727 13.719zm-23.57-42.465 5.1172-9.418 6.5 9.418zm11.895-12.824h20.746c1.625 0 3.1836-0.27344 4.6367-0.78906 2.0117 2.5273 5.5352 7.1523 9.875 13.613h-26.398zm-178.09-0.84375c1.4961 0.55078 3.1094 0.84375 4.7891 0.84375h20.734l-8.8555 12.824h-26.777c4.4961-6.6484 8.1094-11.266 10.109-13.668zm32.305 4.2539 5.1172 9.418h-11.617zm-8.5508 38.16-9.8984 13.719h-17.367l9.4727-13.719zm-56.246 42.461-9.4727 13.719h-6.8359c1.2695-4.5898 2.6641-9.1758 4.1602-13.719zm-9.9258 21.238 6.2109 13.719h-17.645c0.91016-4.5703 1.9453-9.1562 3.082-13.719zm-12.824 21.234h22.441l6.207 13.711h-30.688c0.57031-4.5703 1.2539-9.1562 2.0391-13.711zm32.055 21.227 6.2148 13.719h-42.184c0.23828-4.5547 0.58984-9.1406 1.043-13.719zm9.6133 21.234 6.207 13.711h-52.043c-0.11328-2.582-0.16797-5.2188-0.14844-7.8789 0.011719-1.9102 0.050781-3.8633 0.10156-5.8281zm9.6133 21.227 6.2109 13.719h-59.312c-0.80859-4.5625-1.4258-9.1484-1.8359-13.719zm47.043 21.238-10.953 13.719h-84.012c-1.4141-4.5352-2.6523-9.1211-3.6797-13.719zm-7.332 21.234h7.4766l-10.93 13.711h-7.4922zm13.477 42.465 10.93 13.711h-7.0352l-11.082-13.711zm33.852 42.461 10.93 13.711h-6.5625l-11.082-13.711zm10.859 33.695h-49.391c-2.1797-1.5312-8.0938-5.8008-16.016-12.469h55.328zm15.742 0 10.082-12.469h55.207c-7.8633 6.6641-13.727 10.934-15.902 12.469zm-0.070312-19.984 10.93-13.711h6.7148l-11.082 13.711zm33.852-42.465 10.93-13.711h7.1914l-11.082 13.711zm27.859-42.461-10.93-13.711h7.4805l10.941 13.711zm-10.781-34.945h98.438c-1.043 4.5625-2.2969 9.1523-3.7305 13.719h-83.758zm99.969-7.5195h-59.141l6.2148-13.719h54.832c-0.4375 4.582-1.0781 9.1719-1.9062 13.719zm2.6641-29.137c0 2.6484-0.089844 5.2852-0.22266 7.9023h-51.969l6.2109-13.711h45.91c0.042969 1.9648 0.070313 3.9102 0.070313 5.8086zm-42.574-13.324 6.2148-13.719h35.031c0.44141 4.5234 0.77734 9.1094 1.0039 13.719zm16.27-106.16h-20.598l-9.4727-13.719h23.426c2.3281 4.5234 4.5586 9.1094 6.6445 13.719zm-10.629-21.238h-24.633l-9.4688-13.711h26.055c2.7812 4.4648 5.4805 9.0469 8.0469 13.711zm-124.43-120.89c6.9062 0 12.527 5.6172 12.527 12.527 0 3-1.0781 5.9023-3.0469 8.1758-2.375 2.7578-5.832 4.3438-9.4805 4.3438-3.6406 0-7.0977-1.5859-9.4844-4.3438-1.957-2.2695-3.0312-5.1719-3.0312-8.1719 0-6.9102 5.6133-12.531 12.516-12.531zm-57.883 48.602h115.77l22.969 10.742-161.7-0.003906zm-58.906 58.586h26.457l-9.4609 13.707h-25.027c2.5508-4.6641 5.2461-9.2422 8.0312-13.707zm-11.984 21.227h23.789l-9.4727 13.719h-20.887c2.1016-4.6914 4.3047-9.2734 6.5703-13.719zm-13.309 212.32h55.477l11.09 13.719h-59.066c-2.6992-4.5664-5.2227-9.1562-7.5-13.719zm12.113 21.238h60.527l11.082 13.711-62.121-0.003906c-3.3672-4.543-6.5469-9.1328-9.4883-13.707zm15.266 21.227h62.422l11.094 13.719h-61.844c-4.0742-4.5039-7.9844-9.0898-11.672-13.719zm18.711 21.234h60.883l11.082 13.711h-57.816c-4.8711-4.4375-9.6055-9.0234-14.148-13.711zm177.67 13.711h-57.648l11.082-13.711h60.656c-4.5352 4.7031-9.25 9.2891-14.09 13.711zm21.098-21.227h-61.586l11.09-13.719h62.121c-3.6758 4.625-7.5664 9.2148-11.625 13.719zm17.387-21.238h-61.805l11.082-13.711h60.195c-2.9414 4.5781-6.1172 9.1641-9.4727 13.711zm14.105-21.227h-58.746l11.09-13.719h55.156c-2.3086 4.6133-4.8281 9.1992-7.5 13.719z"/>
 </g>
</svg>
