<?xml version="1.0" encoding="UTF-8"?>
<svg width="752pt" height="752pt" version="1.1" viewBox="0 0 752 752" xmlns="http://www.w3.org/2000/svg">
 <defs>
  <clipPath id="a">
   <path d="m139.21 139.21h473.58v473.58h-473.58z"/>
  </clipPath>
 </defs>
 <g clip-path="url(#a)">
  <path d="m224.14 293.96c-8.4961-31.207-29.41-51.996-62.188-61.789-1.3125-0.39062-2.7383-0.039063-3.7148 0.92578-0.97656 0.96484-1.3516 2.3828-0.97656 3.7031 9.5156 33.59 29.676 54.043 61.602 62.512l11.812 11.582c0.73047 0.71875 1.6797 1.0742 2.6289 1.0742 0.97266 0 1.9492-0.375 2.6836-1.1289 1.4531-1.4805 1.4297-3.8633-0.054687-5.3164zm-57.453-52.297c24.617 9.0742 40.574 25.098 48.531 48.734-23.801-7.8711-39.758-23.898-48.531-48.734zm231.93 70.301c0.94922 0 1.8984-0.35938 2.6328-1.0742l11.812-11.582c31.922-8.4688 52.082-28.922 61.598-62.512 0.375-1.3203 0-2.7383-0.97656-3.7031-0.97656-0.96094-2.3984-1.3164-3.7148-0.92578-32.777 9.793-53.691 30.582-62.188 61.789l-11.797 11.562c-1.4805 1.4531-1.5078 3.832-0.050781 5.3164 0.73438 0.75391 1.707 1.1289 2.6836 1.1289zm66.617-70.301c-8.7734 24.832-24.734 40.859-48.531 48.734 7.957-23.637 23.914-39.66 48.531-48.734zm-105.14 212.45c4.3242-8.0586 5.7656-18.543 7.1602-28.68 0.097656-0.69531 0.19141-1.3867 0.28516-2.0742 5.8242 18.605 18.586 47.805 43.023 57.203 6.8828 2.6484 16.219 3.7227 27.109 3.7227 25.266 0 58.891-5.7734 89.645-11.059 24.133-4.1445 46.926-8.0586 60.148-8.0586 7.0508 0 14.094 0.59766 20.926 1.7812 2.043 0.35547 3.9922-1.0195 4.3438-3.0625 0.35156-2.0469-1.0195-3.9922-3.0625-4.3438-7.2578-1.2539-14.73-1.8906-22.207-1.8906-13.859 0-35.902 3.7852-61.418 8.168-40.926 7.0312-91.863 15.781-112.79 7.7305-29.676-11.414-40.664-59.02-42.234-66.586 1.8906-4.3906 6.2305-9.375 10.812-14.629 6.4648-7.418 13.797-15.828 16.254-25.172 2.2969-8.7383 3.6641-21.043 4.4023-29.824 0.52734-6.2695 4.6797-11.66 10.578-13.73 22.293-7.8164 39.09-18.73 52.863-34.34 16.473-18.672 25.48-42.922 26.773-72.07 0.050781-1.0938-0.38281-2.1562-1.1797-2.9062s-1.8789-1.1211-2.9727-1c-30.891 3.2695-55.938 14.031-74.453 31.992-13.75 13.336-24.301 31.012-31.41 52.59-2.1367-1.2773-5.0117-2.9375-8.4297-4.7773-0.61328-5.3359-1.9102-20.91 2.375-30.574 1.5273-3.4414 6.125-8.1875 11.449-13.684 12.66-13.066 30-30.961 30-55.207 0-14.379-5.5664-27.172-16.094-37-13.051-12.191-32.965-18.629-53.27-17.227-1.793 0.125-3.2461 1.5-3.4688 3.2812-0.22266 1.7852 0.84766 3.4766 2.5547 4.0391 0.33984 0.11328 34.102 11.551 34.102 39.293 0 18.191-14.145 31.301-26.621 42.867-7.3477 6.8086-13.695 12.691-16.102 18.863-4.1562 10.652-3.6797 22.816-2.8594 29.922-6.8125-1.7422-13.734-2.8477-20.367-2.8477-6.6289 0-13.555 1.1055-20.367 2.8477 0.82031-7.1055 1.2969-19.266-2.8594-29.922-2.4102-6.1719-8.7539-12.055-16.102-18.863-12.477-11.566-26.621-24.676-26.621-42.867 0-27.738 33.762-39.18 34.098-39.289 1.7109-0.55859 2.7852-2.25 2.5625-4.0352-0.22266-1.7852-1.6758-3.1641-3.4727-3.2852-20.301-1.3984-40.219 5.0352-53.27 17.219-10.531 9.8242-16.098 22.617-16.098 36.996 0 24.246 17.34 42.141 30 55.207 5.3242 5.4961 9.9219 10.238 11.449 13.684 4.2734 9.6406 2.9844 25.234 2.375 30.574-3.4219 1.8398-6.293 3.5-8.4297 4.7773-7.1094-21.578-17.66-39.254-31.41-52.59-18.516-17.961-43.566-28.723-74.457-31.992-1.0898-0.12109-2.1719 0.25-2.9727 1-0.79688 0.75-1.2266 1.8125-1.1797 2.9062 1.293 29.152 10.301 53.398 26.773 72.07 13.773 15.609 30.57 26.523 52.859 34.34 5.8984 2.0703 10.051 7.457 10.578 13.73 0.74219 8.7852 2.1055 21.086 4.4062 29.824 2.457 9.3438 9.7852 17.754 16.254 25.172 4.8984 5.6211 9.5312 10.934 11.172 15.539 1.6211 4.5508 2.4922 10.871 3.4102 17.562 1.3945 10.137 2.8359 20.621 7.1602 28.68 0.63672 1.1875 1.3672 2.3477 2.1641 3.4883 1.0859 33.055 6.4688 62.926 16.023 88.793 9.1211 24.699 22.348 46.629 39.312 65.18 0.74219 0.8125 1.7578 1.2227 2.7734 1.2227 0.90625 0 1.8125-0.32422 2.5352-0.98437 1.5312-1.4023 1.6406-3.7773 0.23828-5.3086-16.305-17.828-29.027-38.93-37.809-62.711-8.4297-22.824-13.512-48.934-15.164-77.719 9.3203 7.7695 22.191 12.938 34.055 12.938 17.266 0 36.648-10.938 44.141-24.895zm-13.902-203.63c0.27344-0.69531 0.65234-1.418 1.1055-2.1562 4.793 0.12891 9.2383 1.0312 13.246 2.6953 3.6758 1.5273 7.082 3.7461 10.176 6.5977-0.35938 0.62109-0.67969 1.2383-0.94922 1.8477-1.2539 2.832-2.1094 6.0195-2.6797 9.2969-3.0195-2.6289-6.2266-4.8008-9.6016-6.4727-4.1758-2.0703-8.668-3.4141-13.398-4.0352 0.44922-2.6367 1.125-5.2695 2.1016-7.7734zm32.84-22.266c-2.6641-1.4648-5.6172-2.5391-8.8125-3.2422 3.1055-3.1797 6.1211-6.5703 8.8125-10.211 4.4648 0.51172 8.4023 1.7148 11.73 3.582 3.0781 1.7305 5.7227 4.1055 7.9102 7.0586-3.0586 4.1836-6.418 8.0586-9.7227 11.625-2.7266-3.7227-6.0469-6.6797-9.918-8.8125zm31.539-34.594c0 1.0234-0.050781 2.0352-0.12109 3.0352-2.6914-1.9375-5.5742-3.4922-8.6289-4.6172-3.8789-1.4297-8.0898-2.2109-12.555-2.3359 0.10547-1.207 0.16406-2.4375 0.16406-3.6914 0-1.2969-0.0625-2.5586-0.17188-3.793 3.0195-1.1953 6.0469-1.9414 9.0273-2.2109 3.457-0.3125 6.957 0 10.441 0.91797 1.2148 4.0195 1.8438 8.2695 1.8438 12.695zm-22.656 3.5938c4.082-0.007813 7.8789 0.61328 11.309 1.875 3.5469 1.3086 6.8203 3.3398 9.7656 6.0469-1.332 4.8438-3.4219 9.4062-5.9531 13.691-2.4727-2.8477-5.3398-5.2109-8.5859-7.0391-3.2539-1.8281-6.9219-3.1328-10.945-3.9258 1.8555-3.3359 3.375-6.8789 4.4102-10.648zm17.273-24.594c-2.5312-0.29297-5.0625-0.32422-7.582-0.097656-3.2383 0.29297-6.5 1.0352-9.7383 2.1953-0.78906-2.75-1.8477-5.3086-3.1094-7.6992 1.3242-1.3672 2.7852-2.457 4.4297-3.2852 2.1406-1.0781 4.6211-1.707 7.3828-1.8828 0.097657 0.089844 0.19922 0.17578 0.29688 0.26563 3.3867 3.1602 6.168 6.6836 8.3203 10.504zm-38.652-24.84c8.0195 1.3945 15.543 4.1484 22.004 8.0703-0.94531 0.33594-1.8555 0.72656-2.7344 1.168-1.875 0.94531-3.6094 2.1445-5.1953 3.5742-4.1562-5.3789-9.2461-9.6055-14.074-12.812zm-6.1328 86.613c0.98438-0.91406 1.9883-1.8438 3-2.793 4.6016 0.27344 8.6406 1.3438 12.004 3.1953 3.3125 1.8242 6.0273 4.3945 8.2578 7.7891-0.32812 0.33984-0.65234 0.67578-0.97656 1.0078-2.8125 2.9023-5.3438 5.5195-7.4609 7.957-3.5898-3.1953-7.5391-5.707-11.801-7.4805-3.2188-1.3359-6.6562-2.2578-10.266-2.7773 2.1914-2.2148 4.6875-4.5273 7.2422-6.8984zm-17.059 31.336c3.8242 0.52734 7.4453 1.6289 10.805 3.293 4.3086 2.1367 8.332 5.2812 11.988 9.3398-0.14062 3.9531-0.003907 7.668 0.20312 10.668-6.5156-3.168-14.117-6.4414-22.105-9.0547-0.44922-2.8164-1.1094-8.1641-0.89062-14.246zm0.74609 22.156c1.957 8.4883 5.1914 26.559 2.3711 33.832-2.5 6.4414-19.441 15.598-30.496 20.336-11.055-4.7344-27.996-13.883-30.496-20.336-2.8203-7.2734 0.41406-25.344 2.3711-33.832 9.2656-3.2188 19.09-5.5469 28.129-5.5469 9.0312 0 18.855 2.3281 28.121 5.5469zm-81.934-28.422c-0.26953-0.60938-0.58984-1.2266-0.94922-1.8477 3.0938-2.8516 6.5039-5.0742 10.176-6.5977 4.0078-1.6641 8.4492-2.5664 13.246-2.6953 0.45312 0.74219 0.83594 1.4609 1.1055 2.1562 0.97656 2.5039 1.6484 5.1367 2.0977 7.7734-4.7266 0.62109-9.2188 1.9648-13.395 4.0352-3.375 1.6719-6.582 3.8477-9.6016 6.4727-0.57031-3.2773-1.4258-6.4648-2.6797-9.2969zm-19.184-22.438c-3.3047-3.5664-6.6641-7.4414-9.7227-11.625 2.1875-2.9531 4.8359-5.3281 7.9102-7.0586 3.3242-1.8672 7.2656-3.0703 11.73-3.582 2.6914 3.6406 5.707 7.0312 8.8125 10.211-3.1953 0.70312-6.1484 1.7734-8.8125 3.2422-3.8711 2.1328-7.1875 5.0898-9.918 8.8125zm-21.617-43.406c0-4.4258 0.62891-8.6719 1.8438-12.691 3.4805-0.91797 6.9844-1.2305 10.441-0.91797 2.9844 0.27344 6.0117 1.0195 9.0312 2.2109-0.10938 1.2344-0.17188 2.4961-0.17188 3.793 0 1.2539 0.058594 2.4805 0.16406 3.6914-4.4688 0.125-8.6758 0.90234-12.555 2.332-3.0586 1.125-5.9375 2.6797-8.6289 4.6172-0.078125-1.0039-0.125-2.0117-0.125-3.0352zm11.348 5.4688c3.4297-1.2656 7.2266-1.8828 11.309-1.875 1.0352 3.7695 2.5547 7.3086 4.4102 10.652-4.0234 0.79297-7.6914 2.0977-10.945 3.9258-3.2461 1.8242-6.1133 4.1875-8.5859 7.0352-2.5312-4.2812-4.6211-8.8477-5.9531-13.691 2.9453-2.7031 6.2188-4.7383 9.7656-6.0469zm18.613-38.496c-1.5898-1.4258-3.3203-2.6289-5.1953-3.5742-0.87891-0.44141-1.793-0.83203-2.7344-1.168 6.4609-3.9219 13.984-6.6758 22.004-8.0703-4.832 3.207-9.9219 7.4336-14.074 12.812zm-16.258 1.5234c0.097656-0.089844 0.19922-0.17578 0.29688-0.26563 2.7617 0.17578 5.2422 0.80078 7.3828 1.8828 1.6445 0.82812 3.1055 1.918 4.4297 3.2852-1.2617 2.3867-2.3203 4.9492-3.1094 7.6992-3.2383-1.1562-6.5-1.8984-9.7383-2.1914-2.5195-0.22656-5.0508-0.19531-7.582 0.097656 2.1523-3.8242 4.9336-7.3477 8.3203-10.508zm13.199 80.473c2.2305-3.3945 4.9453-5.9648 8.2578-7.7891 3.3633-1.8516 7.4023-2.9219 12.004-3.1953 1.0117 0.94922 2.0156 1.8789 3 2.793 2.5547 2.3672 5.0508 4.6836 7.2422 6.9023-3.6094 0.52344-7.0469 1.4414-10.266 2.7773-4.2617 1.7695-8.2148 4.2812-11.801 7.4805-2.1211-2.4375-4.6523-5.0547-7.4609-7.957-0.32031-0.33594-0.64844-0.67187-0.97656-1.0117zm17.531 35.773c3.6562-4.0547 7.6797-7.2031 11.988-9.3398 3.3555-1.6641 6.9766-2.7656 10.797-3.293 0.21484 6.0781-0.44141 11.434-0.88672 14.25-7.9883 2.6094-15.586 5.8828-22.102 9.0508 0.20312-3 0.33984-6.7148 0.20312-10.668zm12.668 172.19c-3.6836-6.8711-5.0352-16.672-6.3398-26.152-0.97266-7.0859-1.8945-13.777-3.7773-19.062-2.1211-5.9492-7.2031-11.781-12.586-17.957-6.2148-7.1289-12.641-14.504-14.648-22.145-2.1602-8.2188-3.4688-20.062-4.1836-28.547-0.77734-9.2188-6.8945-17.145-15.582-20.191-21.027-7.375-36.824-17.613-49.711-32.223-14.477-16.406-22.754-37.586-24.641-63.004 27.465 3.6094 48.957 13.246 65.598 29.391 13.793 13.379 24.191 31.555 30.906 54.016 0.33984 1.1367 1.1953 2.0469 2.3086 2.4531s2.3555 0.26563 3.3477-0.38281c0.22266-0.14453 13.477-8.7305 30.309-15.684-1.8516 9.2461-4.2305 25.039-1.0039 33.359 4.6211 11.91 32.867 23.848 36.074 25.172 0.46094 0.1875 0.94531 0.28516 1.4336 0.28516 0.48828 0 0.97266-0.09375 1.4336-0.28516 3.207-1.3203 31.453-13.262 36.074-25.172 3.2266-8.3203 0.84766-24.113-1.0039-33.363 16.832 6.9492 30.086 15.535 30.309 15.684 0.99219 0.64844 2.2344 0.79297 3.3477 0.38281 1.1133-0.40625 1.9688-1.3164 2.3086-2.4531 6.7148-22.465 17.113-40.637 30.906-54.016 16.641-16.145 38.133-25.781 65.598-29.391-1.8867 25.418-10.164 46.598-24.641 63.004-12.887 14.609-28.684 24.848-49.711 32.223-8.6875 3.0469-14.805 10.973-15.582 20.191-0.71484 8.4883-2.0234 20.332-4.1836 28.547-2.0078 7.6445-8.4336 15.016-14.648 22.145-5.3828 6.1758-10.465 12.008-12.586 17.957-1.8828 5.2812-2.8047 11.977-3.7773 19.062-1.3047 9.4805-2.6523 19.281-6.3398 26.148-5.6641 10.555-20.219 19.309-33.746 20.727v-12.395c15.766-1.8008 22.047-14.539 22.324-15.121 0.89062-1.8633 0.10156-4.0898-1.7578-4.9922s-4.1055-0.125-5.0156 1.7305c-0.22266 0.45312-5.6133 11.082-19.309 11.082-13.699 0-19.086-10.629-19.301-11.059-0.89453-1.8711-3.1367-2.6641-5.0117-1.7695-1.8711 0.89453-2.6641 3.1406-1.7695 5.0117 0.27734 0.58203 6.5586 13.32 22.324 15.121v12.395c-13.527-1.418-28.082-10.168-33.746-20.723zm-5.957-104.95c-1.3164-3.7656-3.7344-6.9336-6.8125-8.918-3.3242-2.1445-7.1758-2.6914-10.566-1.5078-6.75 2.3594-9.9414 10.871-7.1094 18.977 1.3164 3.7656 3.7344 6.9336 6.8125 8.918 2.1719 1.4023 4.5703 2.1211 6.918 2.1211 1.2422 0 2.4727-0.20312 3.6484-0.61328 6.75-2.3594 9.9414-10.871 7.1094-18.977zm-9.5898 11.879c-1.625 0.56641-3.2109-0.21484-4.0156-0.73047-1.6523-1.0664-3.0352-2.918-3.7891-5.0781-1.4414-4.1211-0.29688-8.4258 2.4922-9.4023 0.40234-0.14062 0.80078-0.19922 1.1875-0.19922 1.1758 0 2.2266 0.53906 2.8281 0.92578 1.6523 1.0664 3.0352 2.918 3.7891 5.0781 1.4414 4.125 0.30078 8.4336-2.4922 9.4062zm23.926 57.32c0.25781 2.0586-1.207 3.9375-3.2656 4.1953-0.15625 0.019531-0.3125 0.027344-0.46875 0.027344-1.8672 0-3.4883-1.3906-3.7266-3.293-1.8203-14.629-5.3438-27.672-10.473-38.77-0.87109-1.8867-0.050782-4.1172 1.8359-4.9883 1.8828-0.87109 4.1172-0.050781 4.9883 1.8359 5.4531 11.797 9.1914 25.59 11.109 40.992zm79.699-50.223c1.1758 0.41016 2.4023 0.61328 3.6484 0.61328 2.3477 0 4.7461-0.72266 6.918-2.1211 3.0781-1.9844 5.5-5.1523 6.8125-8.918 2.832-8.1055-0.35937-16.621-7.1094-18.977-3.3906-1.1836-7.2422-0.63281-10.566 1.5078-3.0781 1.9844-5.4961 5.1523-6.8125 8.918-2.832 8.1055 0.35547 16.617 7.1094 18.977zm-0.011718-16.5c0.75391-2.1602 2.1367-4.0117 3.7891-5.0781 0.60156-0.38672 1.6523-0.92578 2.8281-0.92578 0.38672 0 0.78516 0.058593 1.1875 0.19922 2.7891 0.97266 3.9297 5.2812 2.4922 9.4023-0.75391 2.1602-2.1367 4.0117-3.7891 5.0781-0.80078 0.51562-2.3867 1.2969-4.0156 0.73047-2.793-0.97656-3.9336-5.2852-2.4922-9.4062zm-21.434 66.723c1.9141-15.402 5.6523-29.191 11.109-40.992 0.87109-1.8867 3.1055-2.707 4.9883-1.8359s2.707 3.1055 1.8359 4.9883c-5.1289 11.094-8.6523 24.137-10.473 38.77-0.23828 1.9023-1.8555 3.293-3.7266 3.293-0.15625 0-0.3125-0.007813-0.46875-0.027344-2.0625-0.25781-3.5234-2.1367-3.2656-4.1953z"/>
 </g>
</svg>
