<?xml version="1.0" encoding="UTF-8"?>
<svg width="752pt" height="752pt" version="1.1" viewBox="0 0 752 752" xmlns="http://www.w3.org/2000/svg">
 <defs>
  <clipPath id="a">
   <path d="m139.21 194h473.58v364h-473.58z"/>
  </clipPath>
 </defs>
 <g clip-path="url(#a)">
  <path d="m541.86 215.19c-44.355-13.336-103.26-20.684-165.86-20.684s-121.5 7.3477-165.86 20.684c-45.738 13.754-70.93 32.629-70.93 53.148v215.33c0 20.52 25.191 39.395 70.93 53.148 44.355 13.336 103.26 20.684 165.86 20.684 62.602 0 121.51-7.3438 165.86-20.684 45.734-13.754 70.926-32.629 70.926-53.148v-215.33c0-20.52-25.191-39.395-70.93-53.148zm-366.43 242.04-7.4531-40.297c4.0664 2.3242 8.5547 4.5781 13.438 6.7539zm13.086-30.551c6.5977 2.6328 13.801 5.1406 21.621 7.4922 0.042969 0.011719 0.082031 0.023437 0.125 0.035156l9.8398 56.477c-15.496-4.2305-29.133-9.1172-40.402-14.559zm1.3477-7.5469 8.9922-50.414 9.9609 57.184c-6.8398-2.1523-13.16-4.4141-18.953-6.7695zm28.43 17.375c4.4727 1.2227 9.0703 2.3906 13.797 3.5l-7.0273 35.344zm21.133 5.1523c6.7578 1.4648 13.734 2.8125 20.918 4.043l8.2344 55.16c-13.957-2.1992-27.152-4.8203-39.367-7.8242zm1.4648-7.375 10.137-50.977 8.1445 54.559c-6.2617-1.1016-12.359-2.2969-18.281-3.582zm27.238 12.688c4.9297 0.76953 9.9492 1.4883 15.043 2.1484l-9.1992 37zm22.559 3.0781c8.9883 1.0547 18.199 1.9453 27.59 2.6562l9.9609 54.617c-17.508-1.1172-34.457-2.8359-50.52-5.1055zm1.8281-7.3477 13.809-55.535 10.559 57.891c-8.2773-0.65234-16.414-1.4336-24.367-2.3555zm33.5 10.547c6.7852 0.44141 13.656 0.79688 20.598 1.0547l-12.859 41.367zm28.395 1.3047c7.1367 0.19531 14.336 0.29687 21.59 0.29687s14.453-0.10156 21.59-0.29687l16.578 53.324c-12.516 0.63281-25.277 0.96484-38.164 0.96484-12.891 0-25.652-0.32812-38.164-0.96484zm40.855-7.457c-6.375 0.15625-12.801 0.24219-19.27 0.24219s-12.895-0.082032-19.27-0.24219l19.27-61.98zm10.113 7.2109c6.9414-0.26172 13.812-0.61328 20.598-1.0547l-7.7383 42.422zm28.34-1.6016c9.3906-0.71484 18.598-1.6016 27.59-2.6562l12.969 52.168c-16.062 2.2656-33.012 3.9883-50.52 5.1055zm1.3945-7.6484 10.559-57.891 13.809 55.535c-7.9531 0.92188-16.09 1.7031-24.367 2.3555zm33.707 4.0625c5.0938-0.66016 10.113-1.3789 15.043-2.1484l-5.8438 39.148zm22.836-3.418c7.1836-1.2305 14.16-2.582 20.918-4.043l10.219 51.379c-12.215 3.0039-25.406 5.6289-39.367 7.8242zm1.168-7.8359 8.1445-54.559 10.137 50.977c-5.9219 1.2852-12.023 2.4805-18.281 3.582zm27.082 2.1406c4.7227-1.1094 9.3242-2.2773 13.797-3.5l-6.7656 38.844zm21.828-5.8008c0.042969-0.011719 0.082031-0.023437 0.125-0.035156 7.8047-2.3477 14.992-4.8477 21.578-7.4727l8.793 49.461c-11.258 5.4258-24.871 10.301-40.332 14.523zm1.4453-8.3086 9.9531-57.145 8.957 50.395c-5.7773 2.3516-12.09 4.6094-18.91 6.75zm27.359-2.1914c4.8789-2.1719 9.3672-4.4219 13.434-6.7461l-7.4688 40.293zm-1.3516-7.6133-11.84-66.598c19.41-7.5117 34.43-16.355 43.984-26.195l-15.535 83.812c-4.7305 3.0898-10.293 6.0977-16.609 8.9805zm-34.055 12.211c-5.3672 1.5273-10.938 2.9727-16.691 4.3281l-13.57-68.23c15.941-3.2773 30.496-7.168 43.414-11.602zm-50.105 10.883c-5.8828 0.94531-11.902 1.8086-18.031 2.5938l-17.188-69.137c16.281-1.6406 31.715-3.8242 46.121-6.4922zm-57.66 6.4414c-7.9844 0.53906-16.094 0.94922-24.301 1.2344l-21.973-70.672c20.688-0.12891 40.582-1.0508 59.43-2.6836zm-78.438 1.2383c-8.207-0.28516-16.316-0.69531-24.301-1.2344l-13.156-72.117c18.844 1.6328 38.738 2.5508 59.43 2.6836zm-63.934-5.0859c-6.125-0.78516-12.145-1.6484-18.031-2.5938l-10.902-73.035c14.406 2.668 29.84 4.8516 46.121 6.4922zm-51.441-9.1484c-5.7539-1.3555-11.324-2.8008-16.691-4.3281l-13.152-75.504c12.914 4.4297 27.473 8.3242 43.414 11.602zm-50.785-16.559c-6.3242-2.8867-11.887-5.8945-16.617-8.9922l-15.5-83.793c9.5547 9.8438 24.578 18.691 43.992 26.203zm-36.047-72.707 10.527 56.91c-6.8867-6.2617-10.527-12.766-10.527-19.254zm0 56.637c3.2031 3.9375 7.4141 7.7539 12.59 11.43l11.055 59.758c-15.5-9.0898-23.645-18.918-23.645-28.664zm458.55 83.66c0 16.672-23.902 33.418-65.578 45.949-43.672 13.133-101.8 20.367-163.7 20.367s-120.02-7.2344-163.7-20.363c-41.676-12.535-65.578-29.281-65.578-45.953v-22.129c5.7969 7.1367 14.887 13.906 27.074 20.078 42.977 21.758 118.57 34.746 202.2 34.746 83.574 0 159.14-12.977 202.12-34.707 12.227-6.1836 21.34-12.965 27.148-20.117zm0-41.137c0 9.7617-8.1641 19.605-23.715 28.707l11.078-59.766c5.1953-3.6836 9.4219-7.5156 12.637-11.461l0.003906 42.52zm-10.57-42.211 10.57-57.035v37.738c0 6.5078-3.6523 13.023-10.57 19.297zm10.57-98.34c-3.4453 17.324-28.309 34.262-68.312 46.508-42.578 13.035-99.738 20.211-160.96 20.211-61.219 0-118.38-7.1758-160.96-20.211-40.008-12.246-64.867-29.18-68.316-46.508v-14.66c10.613 13.035 32.23 24.793 63.41 34.168 44.355 13.336 103.26 20.684 165.86 20.684 62.602 0 121.51-7.3438 165.86-20.684 31.18-9.375 52.801-21.133 63.41-34.168zm-65.574 12.312c-43.676 13.129-101.81 20.363-163.7 20.363s-120.02-7.2344-163.7-20.363c-41.676-12.535-65.578-29.281-65.578-45.953 0-16.668 23.902-33.418 65.578-45.949 43.672-13.133 101.81-20.363 163.7-20.363 61.891 0 120.02 7.2344 163.7 20.363 41.676 12.531 65.578 29.281 65.578 45.949 0 16.672-23.902 33.418-65.574 45.953z"/>
 </g>
</svg>
