<?xml version="1.0" encoding="UTF-8"?>
<svg width="752pt" height="752pt" version="1.1" viewBox="0 0 752 752" xmlns="http://www.w3.org/2000/svg">
 <g>
  <path d="m315.05 320.98c-6.75 0.13672-12.094 5.3047-11.938 11.508 0.015624 0.53906 0.11719 1.0508 0.20703 1.5664-0.33594-0.47266-0.67188-0.95703-1.0039-1.4258-2.6992-3.8086-5.2539-7.4023-7.4766-10.879-3.5977-5.625-6.3516-10.316-6.3398-15.207 0.003906-2.6367 0.85547-5.4258 1.7578-8.3828 0.60156-1.9766 1.1992-3.9531 1.6094-5.9688 2.3711-11.582-0.45312-22.453-3.1875-32.961-3.2578-12.531-6.332-24.367-0.18359-36.348 1.5859-3.0938 3.7422-5.7344 6.7852-8.3164 1.9922-1.6914 2.2383-4.6836 0.53906-6.6758-1.6875-1.9922-4.6758-2.2305-6.6719-0.54297-3.9648 3.3672-6.9336 7.0312-9.0781 11.215-7.7969 15.195-4.1172 29.363-0.55469 43.059 2.5703 9.8984 5.0039 19.246 3.0742 28.68-0.35156 1.7188-0.875 3.4102-1.3906 5.1016-1.0664 3.4844-2.1602 7.0898-2.168 11.129-0.019531 8.0586 4.332 14.867 7.832 20.332 2.3477 3.6719 4.9648 7.3555 7.7344 11.258 8.75 12.328 17.797 25.074 19.027 38.152 0.44141 4.6445-0.19531 9.5039-0.88672 14.09-0.38672 2.5859 1.3984 4.9961 3.9844 5.3828 0.24219 0.039062 0.47656 0.050781 0.70703 0.050781 2.3047 0 4.3281-1.6875 4.6797-4.0352 0.77344-5.1523 1.4805-10.664 0.94141-16.375-1.1328-12.062-7.5156-23.406-14.52-33.82 2 1.2305 4.3984 1.9414 6.9805 1.8867 6.6914-0.13672 12.035-5.2539 11.938-11.457-0.097656-6.207-5.6484-11.152-12.398-11.016z"/>
  <path d="m352.04 357.36 6.8242-0.039063c2.6172-0.015624 4.7266-2.1445 4.7109-4.7578-0.015624-2.6172-1.9375-4.75-4.7578-4.7109l-6.8438 0.039063c-2.6172 0.019531-4.7227 2.1562-4.7031 4.7695 0.019531 2.6055 2.1367 4.7031 4.7344 4.7031 0.015625-0.003906 0.027344-0.003906 0.035156-0.003906z"/>
  <path d="m398.49 347.89c-8.6758-0.058594-17.332-0.074219-26.043-0.074219-2.6133 0-4.7305 2.125-4.7305 4.7422 0 2.6133 2.1211 4.7305 4.7344 4.7305h0.003906c8.6719 0 17.312 0.019532 25.965 0.074219h0.03125c2.6016 0 4.7188-2.0977 4.7344-4.7031 0.023437-2.6172-2.082-4.75-4.6953-4.7695z"/>
  <path d="m395.27 374.79c-13.355-0.097656-26.723-0.097656-40.078 0-2.6133 0.019532-4.7188 2.1602-4.6992 4.7734 0.019531 2.6016 2.1367 4.6992 4.7344 4.6992h0.039063c13.312-0.097656 26.621-0.097656 39.934 0h0.039063c2.6016 0 4.7188-2.0977 4.7344-4.6992 0.015625-2.6211-2.0898-4.7539-4.7031-4.7734z"/>
  <path d="m372.6 401.9c-4.9883 0.003906-9.9688 0.027343-14.945 0.074218-2.6172 0.023438-4.7188 2.1641-4.6914 4.7773 0.023437 2.6016 2.1367 4.6914 4.7344 4.6914h0.042969c4.957-0.042968 9.918-0.066406 14.871-0.074218 2.6172-0.003907 4.7344-2.125 4.7305-4.7422-0.011719-2.6094-2.1289-4.7266-4.7422-4.7266z"/>
  <path d="m392.81 401.97-6.7305-0.046875c-2.4023-0.046875-4.7461 2.0977-4.7578 4.7109-0.015625 2.6133 2.0938 4.7461 4.7109 4.7578l6.6836 0.046875h0.046875c2.5938 0 4.7109-2.0898 4.7344-4.6914 0.027344-2.6133-2.0742-4.75-4.6875-4.7773z"/>
  <path d="m475.91 184.31c-11.617 0.83984-22.715 2.5469-33.004 5.0781-0.61719-0.10547-1.2539-0.089844-1.8906 0.074219-0.69141 0.17187-1.3789 0.17578-2.0703 0.20703-2.8086-0.26562-5.4141-1.5547-7.043-3.7422-0.78516-1.0547-1.9258-1.6914-3.1367-1.8594-3.875-4.5742-8.6719-8.1797-14.41-10.602-10.191-4.3047-21.172-4.0391-28.574-3.0742-7.0039 0.91406-14.098 0.91406-21.098 0-7.4062-0.96094-18.402-1.2266-28.574 3.0742-6.5078 2.7461-11.887 6.9375-16.004 12.465-2.3164 3.1172-6.5859 4.5352-10.66 3.5312-10.383-2.5703-21.605-4.3047-33.344-5.1523-38.406-2.7617-67.125 5.4258-87.855 25.059-16.977 16.062-26.199 38.004-25.293 60.191 0.49219 12.293 4.125 23.238 10.504 31.648 4.6367 6.1094 10.398 11.195 15.973 16.109 5.3125 4.6914 10.34 9.1211 14.359 14.293 3.0156 3.8711 6.0039 10.586 8.8945 17.078 3.2578 7.3164 6.6211 14.883 10.598 19.797 9.3125 11.488 21.18 18.289 32.652 24.867 9.625 5.5156 18.711 10.727 26.43 18.508 2.1016 2.1172 4.8164 6.6367 7.6875 11.418 4.9336 8.2305 10.445 17.352 17.164 22.027-0.78906 2.9297-1.6484 5.8477-2.3438 8.7891-3.3359 14.109-4.8594 28.73-4.5352 43.461 0.17188 8.3438 0.68359 17.039 1.5312 25.918 0.22266 1.9609 0.9375 3.7695 2.0938 5.2539 1.875 2.3867 4.6016 3.7461 7.5078 3.7461 0.074218 0 0.14062 0 0.21484-0.003906 2.6445-0.0625 5.1367-1.2695 6.8633-3.3203 4.2539-5.0977 6.7852-11.324 7.3203-17.996 0.76562-9.1641 1.9492-18.305 3.4727-26.965 2.3555-10.551 5.3438-20.961 8.832-31.059 7.7852 14.227 11.379 30.895 9.7461 47.148-1.375 13.648-4.9727 22.918-11.32 29.168-4.7461 4.6758-13.477 8.0117-21.18 10.957-2.4141 0.92188-4.7266 1.8047-6.8086 2.6836-6.7812 2.8711-10.043 10.512-7.4297 17.402l4.7539 12.539c2.1484 5.6641 7.5078 9.1719 13.246 9.1719 1.4766 0 2.9844-0.23047 4.4609-0.71875 10.363-3.4258 35.027-13.359 37.895-14.965 12.34-6.9062 20.82-13.477 27.621-26.625 7.0625-13.633 8.8906-28.449 10.656-42.773 1.7383-14.113 3.3867-27.445 9.7031-39.406l0.78906-1.5117c0.60938-1.1836 1.3594-2.25 2.0234-3.3906 3.5273 10.164 6.543 20.656 8.8984 31.156 1.5625 8.8711 2.7461 18.012 3.5078 27.156 0.53906 6.6914 3.0703 12.918 7.3359 18.023 1.7148 2.0469 4.2148 3.2539 6.8516 3.3086 0.070312 0 0.13672 0.003906 0.21484 0.003906 2.9023 0 5.6328-1.3594 7.5195-3.7617 1.1406-1.4688 1.8594-3.2773 2.082-5.3125 0.84766-8.8008 1.3555-17.492 1.5234-25.828 0.32031-14.738-1.2031-29.363-4.543-43.48-0.64062-2.6797-1.4258-5.3438-2.1406-8.0117 7.2656-4.3672 13.137-14.078 18.359-22.793 2.8711-4.7812 5.582-9.3047 7.6875-11.418 7.7188-7.7812 16.809-12.992 26.43-18.508 11.477-6.5781 23.344-13.379 32.656-24.867 3.9727-4.9062 7.3398-12.473 10.594-19.789 2.8906-6.4922 5.8789-13.207 8.8945-17.078 4.0273-5.1719 9.0469-9.5977 14.359-14.293 5.5742-4.9219 11.336-10.008 15.973-16.109 6.3789-8.4062 10.008-19.352 10.504-31.645 0.90625-22.191-8.3164-44.133-25.293-60.191-20.711-19.629-49.445-27.809-87.832-25.062zm-145.07 261.04c-4.332 11.867-7.9531 24.238-10.785 36.973-1.6211 9.1562-2.8398 18.582-3.6328 28.047-0.37891 4.7266-2.1602 9.1172-5 12.52-0.027344-0.039063-0.11328-0.20703-0.13672-0.39844-0.82031-8.5664-1.3164-17.02-1.4805-25.137-0.30469-13.934 1.1328-27.758 4.2812-41.078 2.0078-8.4297 4.5-16.812 7.2305-25.086l6.5703 7.2734c1.4688 1.6328 2.8086 3.3828 4.1289 5.1367-0.49219 0.48828-0.92188 1.0547-1.1758 1.75zm108.5 77.719c-2.9922-3.582-4.7734-7.9766-5.1562-12.715-0.78516-9.4492-2.0078-18.875-3.6641-28.238-2.8086-12.559-6.418-24.93-10.746-36.766-0.26172-0.70703-0.69531-1.2773-1.207-1.7617 1.0234-1.3086 1.9766-2.6953 3.0742-3.918 2.543-2.8281 5.0898-5.6562 7.6484-8.4727 2.7344 8.2578 5.2227 16.637 7.2305 25.07 3.1523 13.328 4.5938 27.152 4.2852 41.094-0.16016 8.1094-0.66406 16.562-1.4766 25.047-0.023437 0.27344-0.10937 0.44531 0.011719 0.66016zm131.67-227.59c-4.0625 5.3555-9.2266 9.9102-14.699 14.738-5.4102 4.7734-10.992 9.707-15.562 15.574-3.7227 4.7812-6.9531 12.035-10.074 19.043-3.0078 6.7578-6.1172 13.75-9.3008 17.68-8.1992 10.117-18.797 16.188-30.012 22.617-9.7461 5.582-19.82 11.359-28.438 20.047-2.9141 2.9297-5.7734 7.6953-9.0898 13.223-3.8359 6.3945-8.4219 13.977-12.918 17.93-1.3008-4.332-2.707-8.625-4.1914-12.875 2.3359-2.918 4.1094-6.3984 3.7891-10.785-0.42969-5.9102-1.0898-11.891-1.9609-17.773l-0.38281-2.5391c-0.86719-5.6133-1.6758-10.918-1.1953-16.086 1.2344-13.074 10.281-25.824 19.035-38.152 2.7695-3.9023 5.3828-7.5859 7.7383-11.258 3.4961-5.4648 7.8477-12.27 7.8281-20.332-0.007812-4.043-1.1094-7.6523-2.1719-11.145-0.51563-1.6875-1.043-3.3711-1.3906-5.0859-1.5-7.3633-0.28125-14.66 1.1211-20.828 0.57812-2.5508-1.0234-5.0859-3.5742-5.6641-2.5469-0.58203-5.0859 1.0195-5.6641 3.5703-1.6211 7.1523-3.0273 15.691-1.1602 24.824 0.41016 2.0039 1.0078 3.9844 1.6094 5.9531 0.89844 2.9609 1.7578 5.75 1.7617 8.3906 0.007813 4.8906-2.7422 9.582-6.3359 15.207-2.2305 3.4805-4.7812 7.0742-7.4844 10.879-0.26562 0.375-0.53906 0.76562-0.80859 1.1445 0.027344-0.26172 0.097656-0.51172 0.10547-0.77734 0.15234-5.9141-4.9453-10.836-11.379-10.973-6.4375-0.13281-11.73 4.5781-11.82 10.496-0.09375 5.9141 5 10.793 11.387 10.926 2.1992 0.042969 4.2461-0.51172 6.0234-1.4648-6.8906 10.297-13.113 21.496-14.234 33.391-0.59375 6.3359 0.34766 12.473 1.2578 18.414l0.37891 2.4844c0.83984 5.6562 1.4727 11.398 1.8867 17.078 0.17578 2.4219-2.0273 4.7422-5.4023 8.0039-1.0508 1.0117-2.0742 2.0078-2.9805 3.0039-2.7031 2.9844-5.4102 5.9766-8.0977 8.9727-4.9219 5.4805-9.1914 11.715-12.688 18.504l-0.76562 1.4727c-7.1211 13.477-8.9492 28.305-10.723 42.645-1.7383 14.117-3.3867 27.453-9.6602 39.582-5.7383 11.09-12.805 16.539-23.816 22.699-1.9258 1.0273-25.309 10.629-36.262 14.246-2.4023 0.78906-4.9805-0.44922-5.8828-2.8164l-4.7539-12.539c-0.79688-2.1094 0.19922-4.4453 2.2695-5.3242 1.9844-0.84375 4.1953-1.6797 6.4961-2.5664 8.5781-3.2773 18.285-6.9883 24.445-13.055 10.52-10.355 13.082-24.914 14.094-34.965 2.5-24.879-5.8789-50.707-22.41-69.09l-7.0078-7.7656c-0.89844-0.99609-1.9258-1.9883-2.9805-3.0039-3.3828-3.2578-5.582-5.5781-5.4102-8 0.23047-3.125 0.51953-6.2422 0.88281-9.3516 0.29688-2.6016-1.5625-4.9453-4.1641-5.2461-2.6172-0.28516-4.9453 1.5664-5.2422 4.1641-0.375 3.2383-0.67578 6.4844-0.91406 9.7422-0.32031 4.3867 1.457 7.8672 3.7891 10.785-1.3672 3.9297-2.6562 7.9023-3.875 11.902-4.1445-4.1523-8.3047-11.066-11.836-16.949-3.3164-5.5234-6.1758-10.289-9.082-13.223-8.625-8.6836-18.695-14.465-28.441-20.047-11.215-6.4258-21.809-12.504-30.008-22.613-3.1875-3.9336-6.2969-10.926-9.3047-17.684-3.1211-7.0078-6.3516-14.258-10.074-19.043-4.5703-5.8672-10.16-10.801-15.562-15.574-5.4688-4.8242-10.633-9.3828-14.699-14.738-5.2031-6.8594-8.1758-15.949-8.5859-26.301-0.78906-19.461 7.3516-38.754 22.344-52.934 18.691-17.691 45.074-25.059 80.656-22.484 9.6797 0.69531 18.93 2.0586 27.633 3.9766-1.0391 0.69531-2.1211 1.3984-3.2578 2.125-2.2031 1.4102-2.8398 4.3438-1.4297 6.5391 0.89844 1.4102 2.4336 2.1797 3.9922 2.1797 0.875 0 1.7617-0.24219 2.5508-0.75 3.7227-2.3867 8.2578-5.3594 12.238-9.3047 4.1914-1.0977 7.9766-3.4727 10.562-6.9492 3.0859-4.1484 7.1602-7.3086 12.09-9.3906 8.2148-3.4727 17.402-3.2188 23.664-2.4062 7.8125 1.0195 15.73 1.0195 23.551 0 6.2578-0.82422 15.434-1.0703 23.664 2.4062 4.9375 2.0898 9.0039 5.2461 12.086 9.3945 2.6328 3.5312 6.4961 5.9258 10.758 6.9961 3.9609 3.918 8.4062 6.832 12.738 9.6094 6.3633 4.0781 12.371 7.9219 15.852 14.699 5.5 10.719 3.5508 21.371 1.0859 31.371-0.62891 2.5391 0.92188 5.1055 3.4609 5.7305 0.37891 0.09375 0.76172 0.13672 1.1367 0.13672 2.125 0 4.0586-1.4453 4.5938-3.6055 2.7695-11.219 5.1328-24.332-1.8555-37.957-4.6406-9.0508-12.023-13.777-19.164-18.352-1.1758-0.75391-2.3242-1.4922-3.4531-2.2383 9.0039-2.0469 18.613-3.4844 28.68-4.2148 35.562-2.5664 61.965 4.793 80.656 22.492 14.992 14.18 23.133 33.473 22.344 52.934-0.42969 10.344-3.3984 19.438-8.5977 26.297z"/>
 </g>
</svg>
