<?xml version="1.0" encoding="UTF-8"?>
<svg xmlns="http://www.w3.org/2000/svg" xmlns:xlink="http://www.w3.org/1999/xlink" viewBox="0 0 250 250" width="250px" height="250px">
<g id="surface337189042">
<path style=" stroke:none;fill-rule:nonzero;fill:rgb(100%,100%,100%);fill-opacity:1;" d="M 154.949219 14.933594 C 153.632812 14.960938 152.378906 15.515625 151.464844 16.464844 L 125 42.929688 L 98.535156 16.464844 C 97.59375 15.496094 96.300781 14.953125 94.953125 14.949219 C 92.917969 14.953125 91.085938 16.183594 90.320312 18.070312 C 89.554688 19.957031 90.007812 22.117188 91.464844 23.535156 L 112.929688 45 L 85 45 C 54.675781 45 30 69.675781 30 100 L 30 180 C 30 210.324219 54.675781 235 85 235 L 165 235 C 195.324219 235 220 210.324219 220 180 L 220 100 C 220 69.675781 195.324219 45 165 45 L 137.070312 45 L 158.535156 23.535156 C 160.019531 22.105469 160.476562 19.910156 159.683594 18.007812 C 158.890625 16.105469 157.011719 14.882812 154.949219 14.929688 Z M 124.910156 120 C 126.042969 119.980469 127.164062 120.351562 128.074219 121.066406 C 129.292969 122.007812 130 123.460938 130 125 L 130 148.59375 L 183.789062 135.144531 C 186.460938 134.476562 189.183594 136.109375 189.855469 138.789062 C 190.523438 141.46875 188.890625 144.183594 186.210938 144.855469 L 126.210938 159.855469 C 125.8125 159.953125 125.40625 160 125 160 C 123.894531 160 122.8125 159.628906 121.925781 158.933594 C 120.707031 157.992188 120 156.539062 120 155 L 120 131.40625 L 66.210938 144.855469 C 63.535156 145.527344 60.816406 143.890625 60.144531 141.210938 C 59.480469 138.53125 61.109375 135.816406 63.789062 135.144531 L 123.789062 120.144531 C 124.160156 120.050781 124.535156 120.007812 124.910156 120 Z M 124.910156 120 "/>
</g>
</svg>
