<?xml version="1.0" encoding="UTF-8"?>
<svg width="752pt" height="752pt" version="1.1" viewBox="0 0 752 752" xmlns="http://www.w3.org/2000/svg">
 <g>
  <path d="m276.15 281.22h38.781l26.574 24.125-19.164-8.0156-22.68 1.3047-7.9023 1.6719z"/>
  <path d="m233.68 343.54 12.531 6.0234v18.406l13.441 12.836 7.3242 15.258v8.2539l-15.266-8.8555 0.30078-16.117h-4.582l-2.7461 4.207-9.5742-11.734z"/>
  <path d="m245.43 328.36 7.2734 1.4414 11.523 9.0664-3.7617 6.6484-1.9297 7.4844-3.3164-7.3438-7.4023-6.6758-3.7148-6.1914z"/>
  <path d="m226.96 316.05v20.457h6.7148l5.1992-4.5781z"/>
  <path d="m230.02 301.07 11.309-10.691 4.2734 8.2461-12.668 11.609z"/>
  <path d="m293.24 233.88-23.203 18.02 11.598 15.277 6.7227-1.2266v-8.8555l-4.8828-4.2812 12.215-13.441z"/>
  <path d="m301.5 226.54 11.609-7.6328 6.4102 3.8125-10.695 11.156h-7.3242z"/>
  <path d="m275.04 218.91-9.4688 14.969 4.2773 7.3281 14.348-14.82z"/>
  <path d="m248.77 247.43-5.4961 29.629 7.0195 5.8086 6.1133-9.4727 1.5273-16.801z"/>
  <path d="m330.21 223.79 23.52-4.8867-1.8398 11.141-13.434 3.8281-8.2461 1.2227z"/>
  <path d="m314.33 237.69-12.836 21.078 8.5547 4.582 7.0234-11.754 7.9414-9.3203z"/>
  <path d="m332.34 254.95 19.547 10.996h4.2773l-2.4375-8.8555-4.2773-13.367-3.9688 5.7266-9.7734-3.0586-7.332 4.1289z"/>
  <path d="m351.6 202.41 7.6289 6.7188 8.2422-6.7188 5.2031-9.4609-8.8633-5.8086h-10.078l-8.5547 3.668 10.992 3.0586 2.7578 4.2695z"/>
  <path d="m325.62 207.91 6.4141-7.332 10.234 1.2227 2.9023 9.4688-19.551 5.7969-16.805-7.9414 9.625-4.2695z"/>
  <path d="m357.39 239.68 11.922-3.0586 3.3633-10.238-5.4961-9.3164-2.1484 6.4219-7.6406 6.5586-3.6562 5.0508z"/>
  <path d="m365.86 262.28 1.0781 0.85156 3.5898 2.8125v11.305l-19.555 11.91-1.7148-5.1914 16.602-8.25-2.668-7.0273-1.8281-6.4102z"/>
  <path d="m301.43 353-18.223-12.527 1.9531-2.1914 17.75 12.25 22 10.102z"/>
  <path d="m300.58 372.48-22.953-16.828 2.1289-2.0039 22.113 16.387 27.125 9.2344z"/>
  <path d="m303.23 392.03-28.535-18.996 1.8594-2.2617 27.699 18.668 27.578 6.5391z"/>
  <path d="m276.15 281.22-10.391 9.1602 14.125-4.5742z"/>
  <path d="m260.93 322.36 7.2773-1.8086v-5.1914l-7.2773-14.809-8.0469 5.7148-5.4492 5.1914v6.2305z"/>
  <path d="m557.39 194.98-75.707 12.078-0.070313-0.066406-106.42-42.586v0.015625l-106.4 42.57-0.14844 0.15234-74.035-12.156-20.73 16.672 1.375 28.203 42.055 63.73-0.42578 1.7578 1.0039 77.039 82.586 92.016 4.5742 60.039 70.168 53.148 70.148-53.16 4.5703-60.039 82.598-92.016 1.0039-77.039 43.223-65.488 1.3672-28.203zm-32.012 184.22-86.059 88.199-7.2852 59.438-56.82 38.508-56.84-38.508-7.2773-59.438-86.059-88.199-4.6445-72.805 10.883-60.113 40.895-36.176 103.02-33.258h0.015626l103.03 33.266 40.891 36.176 10.879 60.113z"/>
  <path d="m474.25 281.22h-38.766l-26.594 24.125 19.172-8.0156 22.68 1.3047 7.9062 1.6719z"/>
  <path d="m405.56 322.02 3.332-16.672-25.18 12.309 20.984-7.418-5.4961 14.812 12.758 11.918-3.4336 11.73-8.4062-6.2383-24.906 3.5469-24.211-3.4375-8.9688 6.6602-3.582-12.262 12.75-11.918-5.4922-14.812 20.98 7.418-25.188-12.309 3.3398 16.672-16.465 15.402 8.4297 15.691 36.547 44.043 1.8594 15.641 2.5547-15.754 36.551-44.043 7.7148-15.578z"/>
  <path d="m516.73 343.54-12.531 6.0234v18.406l-13.445 12.836-7.3281 15.258v8.2539l15.273-8.8555-0.29687-16.117h4.5859l2.75 4.207 9.5586-11.734z"/>
  <path d="m504.98 328.36-7.2695 1.4414-11.535 9.0664 3.7617 6.6484 1.9336 7.4844 3.3203-7.3438 7.4023-6.6758 3.7109-6.1914z"/>
  <path d="m523.44 316.05v20.457h-6.7148l-5.1992-4.5781z"/>
  <path d="m520.39 301.07-11.305-10.691-4.2695 8.2461 12.672 11.609z"/>
  <path d="m457.16 233.88 23.211 18.02-11.613 15.277-6.7109-1.2266v-8.8555l4.8828-4.2812-12.199-13.441z"/>
  <path d="m448.91 226.54-11.613-7.6328-6.418 3.8125 10.703 11.156h7.3281z"/>
  <path d="m475.37 218.91 9.4727 14.969-4.2812 7.3281-14.344-14.82z"/>
  <path d="m501.63 247.43 5.5 29.629-7.0156 5.8086-6.1133-9.4727-1.5352-16.801z"/>
  <path d="m420.2 223.79-23.512-4.8867 1.832 11.141 13.434 3.8281 8.2461 1.2227z"/>
  <path d="m436.09 237.69 12.828 21.078-8.5664 4.582-7.0156-11.754-7.9375-9.3203z"/>
  <path d="m418.06 254.95-19.543 10.996h-4.2773l2.4453-8.8555 4.2773-13.367 3.9727 5.7266 9.7656-3.0586 7.3359 4.1289z"/>
  <path d="m398.81 202.41-7.6289 6.7188-8.2422-6.7188-5.1992-9.4609 8.8633-5.8086h10.082l8.5469 3.668-10.992 3.0586-2.75 4.2695z"/>
  <path d="m424.78 207.91-6.4141-7.332-10.234 1.2227-2.9023 9.4688 19.551 5.7969 16.805-7.9414-9.625-4.2695z"/>
  <path d="m393.01 239.68-11.914-3.0586-3.3594-10.238 5.4961-9.3164 2.1406 6.4219 7.6367 6.5586 3.6719 5.0508z"/>
  <path d="m384.54 262.28-1.0781 0.85156-3.5898 2.8125v11.305l19.555 11.91 1.7188-5.1914-16.605-8.25 2.668-7.0273 1.8281-6.4102z"/>
  <path d="m448.98 353 18.219-12.527-1.9492-2.1914-17.75 12.25-22.012 10.102z"/>
  <path d="m449.83 372.48 22.969-16.828-2.1484-2.0039-22.105 16.387-27.129 9.2344z"/>
  <path d="m447.17 392.03 28.547-18.996-1.8555-2.2617-27.707 18.668-27.582 6.5391z"/>
  <path d="m396.47 420.82-21.258-8.0195-21.852 8.0195-53.938 4.1172 25.527 46.32 6.4219 47.156h86.234l6.4219-47.156 26.363-46.32zm12.578 85.902-13.938-2.0547-5.5352 0.45313-6.6406-0.6875-7.7227 1.543-7.7461-1.543-6.6406 0.6875-5.5469-0.45313-13.93 2.0547-6.2969-36.859 18.219 20.602 7.0977-8.7031 5.9531 9.9648 4.5938-7.2109 4.3008 5.6328 4.2812-5.6328 4.5898 7.2109 5.9531-9.9648 7.0977 8.7031 18.219-20.602zm-4.75-51.043-6.1016-21.203-8.2461 6.1055-5.4141-5.793-9.3281 5.2812-9.3516-5.2812-5.418 5.793-8.2422-6.1055-6.0938 21.203-10.504-27.922 11.398-2.0977 9.6172 1.4883 5.957-2.1836 6.7266 1.2695 5.9062 0.066406 5.8828-0.066406 6.7266-1.2695 5.9609 2.1836 9.6172-1.4883 11.395 2.0977z"/>
  <path d="m474.25 281.22 10.395 9.1602-14.133-4.5742z"/>
  <path d="m489.48 322.36-7.2734-1.8086v-5.1914l7.2734-14.809 8.0352 5.7148 5.4688 5.1914v6.2305z"/>
 </g>
</svg>
