<?xml version="1.0" encoding="UTF-8"?>
<svg width="752pt" height="752pt" version="1.1" viewBox="0 0 752 752" xmlns="http://www.w3.org/2000/svg">
 <g>
  <path d="m423.83 335.27c5.2109 0.47266 10.891 1.4219 13.262 1.4219 1.8945-0.47266 12.785-2.8398 20.363-5.2109l7.5781-11.84c-11.367 2.3672-29.836 6.1562-35.52 7.1055z"/>
  <path d="m286.97 320.12 7.5781 11.84c8.0508 1.8945 18.941 4.7344 20.363 5.2109 1.8945 0 8.0508-0.47266 13.262-1.4219l-5.6836-8.5234c-5.6836-1.4219-24.152-4.7344-35.52-7.1055z"/>
  <path d="m499.13 281.29-58.25-29.363-64.406 24.625-64.406-24.625-58.254 29.363-8.9961 33.625 19.418 88.559 37.414 53.043 9.4727-16.574-13.262 36.938 32.203 40.727 42.621-29.836v-29.836l-53.043-37.414h112.71l-52.094 36.938v30.309l42.621 29.836 32.203-40.727-13.262-36.938 9.4727 16.574 37.414-53.043 19.418-88.559zm-156.75 105.14-2.3672-32.676-7.1055-11.367c-4.7344 0.47266-14.207 1.8945-17.523 1.8945h-1.4219c-1.8945-0.47266-20.363-4.7344-22.258-5.6836l-1.8945-0.47656-18.941-29.836 8.9961 2.3672c1.4219 0.47266 28.414 5.6836 45.938 8.9961l1.4219 0.47266 14.207 20.836 3.7891 10.891zm133.55-70.09-13.734 21.781-1.4219 0.47266c-1.8945 0.47266-20.363 5.2109-22.258 5.6836h-1.4219c-3.3164 0-13.262-1.4219-17.523-1.8945l-7.1055 11.367-2.3672 32.676-3.3086-34.094 3.7891-10.891 14.207-20.836 1.4219-0.47266c17.523-3.3164 44.516-8.9961 45.938-8.9961l8.9961-2.3672z"/>
  <path d="m343.32 427.62 32.676 23.207 32.68-23.207z"/>
  <path d="m341.43 518.55 13.734 26.52h42.621l13.734-26.52-35.043-24.152z"/>
  <path d="m506.71 443.72 25.102 53.516 47.832-37.887-13.734-33.152-12.312-55.883 19.891 42.621 14.207-25.574-15.156-54.934-21.312-71.512 26.992 54.934 13.262-36.465-61.566-83.348-55.883-41.199-98.031 46.41-98.031-46.41-55.883 41.199-60.617 82.879 13.262 36.465 26.992-54.934-21.309 71.508-15.629 54.938 14.207 25.574 19.891-42.621-12.312 56.352-13.734 33.152 47.832 37.887 25.102-53.516-16.578 62.988 25.102 63.934 121.71 26.52 121.71-26.52 25.102-63.934zm-10.895-37.41-40.254 56.828 7.1055 12.312-0.47266 3.7891-37.887 47.832-6.6328-4.2617-15.629 29.836h-51.148l-15.625-29.836-6.6289 4.7344-37.887-47.832-0.47266-4.2617 7.1055-12.312-40.254-56.828-20.367-91.875 10.418-38.359 55.883-28.414-42.148-20.836-33.152 20.836 33.625-24.152 51.148 20.363 63.461 24.152 62.039-23.68 51.621-20.836 33.625 24.152-34.57-20.836-40.254 20.363 56.355 28.887 10.418 38.359z"/>
 </g>
</svg>
