<?xml version="1.0" encoding="UTF-8"?>
<svg width="752pt" height="752pt" version="1.1" viewBox="0 0 752 752" xmlns="http://www.w3.org/2000/svg">
 <g>
  <path d="m584.85 332.43 19.891-54.461-65.828-89.98-63.461-47.359-99.453 47.359-99.453-47.359-63.461 46.883-65.828 89.98 19.891 54.461-15.629 56.828 20.844 38.836-15.156 35.992 60.145 47.832 27.469 70.562 130.71 28.414 130.71-28.414 27.469-70.562 60.145-47.832-14.207-35.992 21.312-38.359zm-11.84 80.98-19.891-42.621 12.312 56.355 13.734 33.152-47.832 37.887-25.102-53.516 16.578 62.512-25.102 63.934-121.71 26.992-121.71-26.52-25.098-64.406 16.102-62.984-25.102 53.516-47.832-37.887 13.734-33.152 12.312-55.883-19.891 42.621-14.207-25.574 15.156-54.934 21.312-71.512-26.047 54.461-13.262-36.465 60.617-82.875 55.883-41.203 98.031 46.883 98.031-46.883 55.883 41.203 60.617 82.875-13.262 36.465-26.992-54.934 21.312 71.512 15.156 54.934z"/>
  <path d="m448.93 248.13 40.254-20.363 34.57 20.836-33.625-24.148-51.621 20.836-62.039 23.68-63.461-24.152-51.145-20.363-33.621 23.676 33.152-20.836 42.148 20.836-55.883 28.414-10.418 38.359 20.363 91.875 40.254 56.828-7.1055 12.312v4.2656l37.887 47.832 6.6289-4.2617 15.629 29.836h51.148l15.629-29.836 6.6289 4.2617 37.887-47.832 0.47266-3.7891-7.1055-12.312 40.254-56.828 20.363-91.875-10.891-38.832zm-51.148 297.88h-42.625l-13.734-26.52 35.047-24.625 35.047 24.625zm-21.785-94.715-32.676-22.73h64.879zm112.71-47.359-37.414 53.043-9.4727-16.574 13.262 36.938-32.676 40.727-42.621-29.836v-30.309l52.094-36.938h-112.24l53.043 37.414v29.836l-42.148 29.832-32.203-40.727 13.262-36.938-9.4727 16.574-37.414-53.043-19.418-88.559 8.9961-33.625 58.25-29.363 63.938 24.156 64.406-24.625 58.25 29.832 8.9961 33.625z"/>
  <path d="m472.14 311.59c-1.4219 0.47266-28.414 5.6836-45.938 8.9961l-1.4219 0.47266-14.207 20.836-3.7891 10.891 2.3672 34.57 2.3672-32.676 7.1055-11.367c4.7344 0.47266 14.207 1.8945 17.523 1.8945h1.4219c1.8945-0.47266 20.363-4.7344 22.258-5.6836l1.4219-0.47266 13.734-21.785 5.2109-8.0508zm-14.68 20.84c-8.0508 1.8945-18.941 4.7344-20.363 5.2109-1.8945 0-8.0508-0.47266-13.262-1.4219l5.6836-8.5234c6.1562-1.4219 24.625-4.7344 35.52-7.1055z"/>
  <path d="m327.22 321.07-1.4219-0.47266c-17.523-3.3164-44.516-8.9961-45.938-8.9961l-8.9961-2.3672 18.941 29.836 1.4219 0.47266c1.8945 0.47266 20.363 5.2109 22.258 5.6836h1.4219c3.3164 0 13.262-1.4219 17.523-1.8945l7.1055 11.367 2.3672 32.676 2.3672-34.57-3.7891-10.891zm-11.84 16.574c-1.8945-0.47266-12.785-2.8398-20.836-5.2109l-7.5781-11.84c11.367 2.3672 29.836 6.1562 35.52 7.1055l5.6836 8.5234c-4.7383 0.47656-10.895 1.4219-12.789 1.4219z"/>
 </g>
</svg>
