<?xml version="1.0" encoding="UTF-8"?>
<svg width="752pt" height="752pt" version="1.1" viewBox="0 0 752 752" xmlns="http://www.w3.org/2000/svg">
 <defs>
  <clipPath id="a">
   <path d="m209 139.21h334v473.58h-334z"/>
  </clipPath>
 </defs>
 <g clip-path="url(#a)">
  <path d="m402.7 291.05c-0.35547-2.043 1.0039-3.9844 3.0469-4.3438 0.52344-0.09375 12.945-2.1875 22.328 4.4219 1.6953 1.1953 2.1016 3.5391 0.90625 5.2383-0.73047 1.0391-1.8945 1.5938-3.0742 1.5938-0.74609 0-1.5039-0.22266-2.1602-0.6875-6.7891-4.7852-16.605-3.1797-16.703-3.1602-2.0469 0.33594-3.9922-1.0234-4.3438-3.0625zm-76.59 6.9062c0.74609 0 1.5039-0.22266 2.1602-0.6875 6.7656-4.7656 16.531-3.1875 16.699-3.1602 2.0508 0.36328 3.9844-1.0078 4.3438-3.0508 0.35938-2.043-1.0039-3.9922-3.0508-4.3555-0.52344-0.09375-12.945-2.1875-22.328 4.4219-1.6953 1.1953-2.1016 3.5391-0.90625 5.2383 0.73828 1.0391 1.9023 1.5938 3.082 1.5938zm37.598 49.793c4.0703 1.1523 8.2109 1.7383 12.301 1.7383 4.0898 0 8.2266-0.58594 12.301-1.7383 1.9961-0.56641 3.1562-2.6445 2.5938-4.6406-0.56641-1.9961-2.6406-3.1602-4.6406-2.5938-6.8125 1.9297-13.688 1.9297-20.504 0-1.9961-0.56641-4.0742 0.59375-4.6406 2.5938-0.56641 1.9961 0.59375 4.0742 2.5898 4.6406zm-25.285-28.207c-0.79297 0-1.5547 0.125-2.2695 0.35156-0.55859-0.3125-1.0078-0.74219-1.3281-1.2969-1.043-1.793-3.3438-2.4062-5.1367-1.3633-1.793 1.043-2.4062 3.3438-1.3633 5.1367 0.44922 0.77734 0.99609 1.4648 1.6016 2.0938-0.71484-0.14453-1.3633-0.35547-1.8594-0.64844-1.7812-1.0625-4.0898-0.47656-5.1523 1.3086s-0.47656 4.0898 1.3086 5.1523c2.082 1.2383 5.3164 1.9258 8.4844 1.9258 0.078124 0 0.15625-0.003907 0.23437-0.007813 1.3711 1.4648 3.3164 2.3828 5.4805 2.3828 4.1523 0 7.5156-3.3672 7.5156-7.5156 0.003906-4.1562-3.3633-7.5195-7.5156-7.5195zm85.527 4.2695c-0.49609 0.29297-1.1406 0.50391-1.8555 0.64844 0.60547-0.62891 1.1484-1.3164 1.6016-2.0938 1.043-1.7969 0.42969-4.0938-1.3633-5.1367-1.793-1.0391-4.0938-0.42969-5.1367 1.3633-0.32422 0.55469-0.76953 0.98438-1.3281 1.2969-0.71484-0.22656-1.4766-0.35156-2.2695-0.35156-4.1523 0-7.5156 3.3672-7.5156 7.5156 0 4.1523 3.3672 7.5156 7.5156 7.5156 2.1641 0 4.1094-0.91797 5.4805-2.3828 0.078125 0 0.15625 0.007812 0.23438 0.007812 3.168 0 6.4062-0.6875 8.4844-1.9258 1.7812-1.0625 2.3672-3.3672 1.3047-5.1523-1.0625-1.7812-3.3711-2.3672-5.1523-1.3047zm98.25 270.68c1.3555 4.4609 2.6289 8.9961 3.8008 13.625 0.28516 1.125 0.035156 2.3164-0.67969 3.2305-0.71094 0.91406-1.8047 1.4492-2.9648 1.4492l-292.72-0.003907c-1.1602 0-2.2539-0.53516-2.9648-1.4492-0.71094-0.91406-0.96094-2.1094-0.67969-3.2305 1.1719-4.6289 2.4453-9.1641 3.8008-13.621-5.9883-8.5898-32.215-49.738-14.242-88.305 7.8828-16.918 28.27-27.18 50.227-33.41-1.4727-21.004-2.3555-41.254-2.6055-60.254-2.0625-3.7461-3.2383-8.043-3.2383-12.609 0-4.5859 1.1875-8.9023 3.2656-12.656 0.27734-17.102 1.0898-33.789 2.4297-49.609 0.21094-2.4844 0.44141-4.957 0.67969-7.4219-16.762-20.613-25.613-44.973-25.613-70.547 0-66.422 60.695-120.46 135.3-120.46s135.3 54.043 135.3 120.47c0 25.574-8.8555 49.93-25.613 70.547 0.23828 2.4648 0.46875 4.9336 0.67969 7.4219 1.3398 15.82 2.1562 32.508 2.4297 49.609 2.0781 3.7539 3.2656 8.0703 3.2656 12.656 0 4.5664-1.1758 8.8633-3.2383 12.609-0.25391 19-1.1328 39.25-2.6055 60.254 21.957 6.2305 42.34 16.492 50.227 33.41 17.969 38.559-8.2539 79.707-14.246 88.301zm11.633-72.262c-0.73047-3.6562-1.8242-7.3125-3.3477-10.93-6.7422-0.51172-29.078-1.0703-48.395 11.363-14.484 9.3242-34.285 40.746-52.199 82.613h10.109c10.496-23.141 29.988-61.133 49.441-73.051 17.852-10.934 35.711-10.895 44.391-9.9961zm-85.559 83.047h11.352v-22.734c-3.7656 6.9375-7.5664 14.543-11.352 22.734zm-44.801 0c0.80469-2.0039 1.0508-4.0977 0.67188-6.0078-0.39844-2.0078-1.4414-3.5469-2.9375-4.3398-3.3125-1.75-8.1211 0.58594-10.504 5.0977-0.89844 1.6992-1.3672 3.5156-1.3906 5.25zm7.8672 0h10.387c8.332-19.738 32.777-73.793 56.297-88.934 5.4414-3.5 11.047-6.0703 16.508-7.9492-0.23047-0.33984-0.46875-0.67578-0.6875-1.0234-5.1055-8.1055-5.9531-17.805-2.5781-25.215-30.754-10.176-68.734-11.328-76.328-11.457-4.5078 3.7031-21.48 16.621-38.941 16.621-17.457 0-34.434-12.918-38.941-16.621-7.5938 0.12891-45.57 1.293-76.324 11.465 3.3672 7.4102 2.5195 17.105-2.582 25.211-0.21875 0.34766-0.45312 0.68359-0.6875 1.0234 5.4609 1.8789 11.07 4.4453 16.508 7.9492 23.52 15.141 47.965 69.195 56.297 88.934h51.535c0.027343-2.9492 0.78516-5.9805 2.2539-8.7617 4.3594-8.2539 13.629-11.949 20.66-8.2344 3.543 1.8711 5.9609 5.2539 6.8047 9.5312 0.48047 2.418 0.40625 4.9688-0.17969 7.4609zm-118.97-22.738v22.738h11.352c-3.7852-8.1914-7.5859-15.797-11.352-22.738zm19.621 22.738h10.109c-17.914-41.871-37.715-73.293-52.199-82.613-19.387-12.477-41.664-11.891-48.395-11.367-1.5234 3.6211-2.6172 7.2773-3.3477 10.934 8.6836-0.89453 26.543-0.93359 44.387 9.9961 19.457 11.918 38.949 49.91 49.445 73.051zm-25.832-186.65c8.2188 0 15.441-5.418 17.852-13.117-2.5703-3.1523-4.7227-6.1953-6.3984-8.9883-2.375-3.9609-4.6172-8.9062-6.6797-14.699-1.5508-0.40625-3.1484-0.61719-4.7773-0.61719-10.316 0-18.711 8.3945-18.711 18.711 0.003906 10.316 8.3984 18.711 18.715 18.711zm198.38-18.711c0-10.316-8.3945-18.711-18.711-18.711-1.625 0-3.2266 0.21094-4.7773 0.61719-2.0586 5.7969-4.3008 10.738-6.6797 14.699-1.6758 2.793-3.8281 5.8359-6.3984 8.9883 2.4102 7.6992 9.6367 13.117 17.852 13.117 10.324 0 18.715-8.3945 18.715-18.711zm-3.457-21.32c-0.37891-13.855-1.1172-27.383-2.2109-40.316-2.3008-27.168-6.2734-53.008-11.816-76.91-1.5156 0.66797-3.1602 1.0742-4.8672 1.1719-2.3438 0.13672-4.6641 0.33203-6.9688 0.55469-0.90234 18.582-0.85937 37.379 0.15234 55.938 0.99609 18.266 2.9609 36.766 5.8203 55.062 1.5234-0.27344 3.0703-0.41016 4.6367-0.41016 5.6875 0 10.953 1.8242 15.254 4.9102zm-13.844-132.61c-10.418-21.699-36.125-58.105-91.242-58.105-55.121 0-80.828 36.402-91.242 58.105-0.91797 1.9102-0.82812 4.0586 0.25391 5.8867 1.1133 1.8906 3.0195 3.0469 5.2266 3.1758 29.406 1.6953 55.914 10.047 78.785 24.816 4.2383 2.7344 9.7188 2.7383 13.957 0 22.871-14.77 49.379-23.117 78.785-24.816 2.207-0.12891 4.1133-1.2852 5.2266-3.1758 1.0742-1.832 1.1641-3.9766 0.25-5.8867zm-194.12 92.301c-1.0938 12.934-1.832 26.457-2.2109 40.316 4.3008-3.0859 9.5664-4.9102 15.254-4.9102 1.5664 0 3.1133 0.14062 4.6367 0.41016 2.8555-18.297 4.8203-36.797 5.8203-55.062 1.0156-18.555 1.0547-37.355 0.15234-55.938-2.3047-0.22266-4.625-0.41797-6.9688-0.55469-1.707-0.097657-3.3516-0.50391-4.8672-1.1719-5.5391 23.902-9.5117 49.742-11.816 76.91zm102.88 97.645c33.492 0 61.898-26.543 71.938-43.277 2.2344-3.7227 4.3633-8.5039 6.3398-14.203-3.1758-19.582-5.3281-39.426-6.3984-59.008-1.0039-18.391-1.0664-37.02-0.21484-55.449-22.324 3.1641-42.66 10.59-60.602 22.176-3.3594 2.168-7.207 3.2539-11.059 3.2539-3.8477 0-7.6992-1.0859-11.059-3.2539-17.945-11.586-38.277-19.012-60.602-22.176 0.85156 18.43 0.78906 37.059-0.21484 55.449-1.0703 19.578-3.2266 39.426-6.3984 59.008 1.9766 5.6953 4.1055 10.48 6.3398 14.203 10.035 16.734 38.441 43.277 71.93 43.277zm-18.785 5.0234v9.9023h37.578v-9.9023c-6.0352 1.582-12.32 2.4961-18.789 2.4961-6.4727 0-12.758-0.91406-18.789-2.4961zm-15.039 17.418v6.7852c4.3789 3.5195 19.375 14.645 33.824 14.645s29.445-11.125 33.824-14.645v-6.7852zm156.18 26.348c-2.6875 5.1641-2.0469 12.449 1.8555 18.648 0.61719 0.98438 1.3125 1.9062 2.0547 2.7773 9.5273-2.3008 18.086-2.6953 23.844-2.5859-6.1094-8.1211-16.133-14.234-27.754-18.84zm-19.535-13.879c1.1836-17.164 1.9648-33.805 2.3281-49.648-4.3125 3.1133-9.6016 4.9531-15.312 4.9531-10.031 0-19.008-5.7617-23.395-14.383-9.9531 10.387-23.906 20.922-40.137 26.848v12.246h11.277c2.0742 0 3.7578 1.6836 3.7578 3.7578v8.6055c9.6641 0.22266 35.809 1.4141 61.48 7.6211zm-211.36-151.52c2.5625-22.328 6.2812-43.648 11.09-63.605-0.003907-0.007813-0.011719-0.019532-0.019532-0.027344-2.3359-3.9688-2.5469-8.8125-0.55469-12.961 11.18-23.293 38.785-62.367 98.02-62.367s86.836 39.074 98.02 62.367c1.9922 4.1484 1.7852 8.9922-0.55469 12.961-0.003906 0.007812-0.011719 0.019531-0.019532 0.027344 4.8125 19.957 8.5273 41.277 11.09 63.605 12.621-17.867 19.25-38.312 19.25-59.637 0-62.281-57.324-112.95-127.79-112.95s-127.79 50.672-127.79 112.95c0 21.328 6.6289 41.77 19.25 59.637zm5.7148 151.52c25.672-6.207 51.816-7.3984 61.477-7.6211v-8.6055c0-2.0742 1.6836-3.7578 3.7578-3.7578h11.277v-12.246c-16.227-5.9258-30.184-16.461-40.137-26.848-4.3867 8.6211-13.367 14.383-23.395 14.383-5.7109 0-11-1.8398-15.312-4.9531 0.36719 15.844 1.1484 32.484 2.332 49.648zm-47.285 32.715c5.7578-0.10938 14.316 0.28516 23.844 2.5859 0.74609-0.86719 1.4375-1.7891 2.0547-2.7734 3.9023-6.1953 4.543-13.477 1.8594-18.641-11.625 4.6016-21.648 10.715-27.758 18.828zm6.8984 81.66c6.043-17.68 13.578-33.902 22.527-48.453-16.238-8.6133-32.074-7.6562-38.184-6.8281-1.6211 23.047 9.3867 44.891 15.656 55.281zm1.7148 20.062h50.348v-35.777c-8.2539-13.422-16.164-23.281-23.18-28.727-11.527 18.754-20.648 40.414-27.168 64.504zm282.98 0c-6.5156-24.09-15.641-45.75-27.164-64.508-7.0156 5.4492-14.926 15.309-23.18 28.73v35.777zm17.371-75.336c-6.1289-0.8125-22.012-1.7422-38.184 6.8203 8.9492 14.551 16.484 30.773 22.527 48.449 6.2734-10.387 17.277-32.227 15.656-55.27zm-149.86 40.785c0.78516 3.9844 0.09375 8.3086-1.9492 12.18-2.043 3.8711-5.2266 6.8789-8.957 8.4766-1.9102 0.81641-3.8555 1.2266-5.7539 1.2266-2.082 0-4.1016-0.49219-5.9531-1.4688-7.0312-3.7148-9.2109-13.453-4.8516-21.707 4.3594-8.2578 13.629-11.949 20.664-8.2344 3.543 1.8672 5.957 5.2539 6.8008 9.5273zm-7.375 1.457c-0.39844-2.0078-1.4414-3.5469-2.9375-4.3398-0.75-0.39453-1.5742-0.58203-2.4297-0.58203-2.9336 0-6.2305 2.1875-8.0742 5.6797-2.3828 4.5117-1.5977 9.8008 1.7148 11.551 1.5 0.78906 3.3594 0.78516 5.2383-0.019531 2.1562-0.92188 4.0234-2.7227 5.2656-5.0781 1.2422-2.3516 1.6797-4.9141 1.2227-7.2109zm34.332-3.6133c-3.543-1.8711-5.957-5.2539-6.8008-9.5312-0.78906-3.9844-0.09375-8.3086 1.9492-12.18 4.3594-8.2539 13.629-11.945 20.664-8.2344 7.0352 3.7148 9.2109 13.453 4.8516 21.707-2.043 3.8711-5.2266 6.8789-8.957 8.4766-1.9102 0.81641-3.8555 1.2266-5.7539 1.2266-2.0781 0.003906-4.1016-0.48828-5.9531-1.4648zm0.57031-10.988c0.39844 2.0078 1.4414 3.5469 2.9375 4.3398 1.5 0.78906 3.3594 0.78516 5.2383-0.019531 2.1562-0.92188 4.0234-2.7227 5.2656-5.0781 2.3828-4.5117 1.5977-9.8008-1.7148-11.551-0.75-0.39453-1.5742-0.58203-2.4297-0.58203-2.9336 0-6.2305 2.1875-8.0742 5.6797-1.2422 2.3516-1.6758 4.9141-1.2227 7.2109zm-6.3047-40.621c-3.543-1.8711-5.957-5.2539-6.8008-9.5312-0.78516-3.9844-0.09375-8.3086 1.9492-12.18 2.043-3.8711 5.2266-6.8789 8.957-8.4766 4.0078-1.7148 8.1641-1.6289 11.707 0.24219 3.543 1.8711 5.957 5.2539 6.8008 9.5312 0.78516 3.9844 0.09375 8.3086-1.9492 12.18s-5.2266 6.8789-8.957 8.4766c-1.9102 0.81641-3.8555 1.2266-5.7539 1.2266-2.0781 0-4.0977-0.49219-5.9531-1.4688zm0.57422-10.984c0.39844 2.0078 1.4414 3.5469 2.9375 4.3398 1.4961 0.78906 3.3594 0.78516 5.2383-0.019531 2.1523-0.92188 4.0234-2.7227 5.2656-5.0742 1.2422-2.3516 1.6758-4.9141 1.2227-7.2109-0.39844-2.0078-1.4414-3.5469-2.9375-4.3398-0.74219-0.39062-1.5742-0.58984-2.4531-0.58984-0.89453 0-1.8359 0.20312-2.7852 0.60938-2.1562 0.92188-4.0234 2.7227-5.2656 5.0742-1.2422 2.3477-1.6758 4.9102-1.2227 7.2109zm-98.23-12.879c0.78906 3.9844 0.09375 8.3086-1.9492 12.18-3.207 6.0742-9.0742 9.6797-14.754 9.6797-2.0391 0-4.0508-0.46484-5.9102-1.4453-7.0352-3.7148-9.2109-13.453-4.8516-21.707 2.043-3.8711 5.2266-6.8789 8.957-8.4766 4.0078-1.7148 8.1641-1.625 11.707 0.24609 3.543 1.8672 5.957 5.25 6.8008 9.5234zm-7.375 1.457c-0.39844-2.0078-1.4414-3.5469-2.9375-4.3398-0.74219-0.39063-1.5742-0.58984-2.4531-0.58984-0.89453 0-1.8359 0.20312-2.7852 0.60938-2.1562 0.92188-4.0234 2.7227-5.2656 5.0781-2.3828 4.5117-1.5977 9.8008 1.7148 11.551s8.125-0.58594 10.508-5.0977c1.2383-2.3516 1.6719-4.9141 1.2188-7.2109zm88.555 25.582c4.9727 7.8984 3.543 17.773-3.1875 22.016-2.0625 1.2969-4.4023 1.957-6.8438 1.957-1.5742 0-3.1914-0.27344-4.8086-0.82031-3.8438-1.3086-7.2461-4.0703-9.5781-7.7734-2.332-3.7031-3.3516-7.9648-2.8711-11.992 0.51562-4.3281 2.668-7.8867 6.0586-10.02 3.3867-2.1328 7.5273-2.5352 11.652-1.1328 3.8438 1.3047 7.2461 4.0625 9.5781 7.7656zm-6.3633 4.0078c-1.418-2.25-3.418-3.9062-5.6367-4.6602-0.80859-0.27344-1.6055-0.41016-2.3633-0.41016-1.0547 0-2.0312 0.26563-2.8633 0.78906-1.4336 0.90234-2.3555 2.5195-2.6016 4.5508-0.27734 2.3281 0.35156 4.8477 1.7656 7.0977 1.418 2.25 3.4219 3.9062 5.6367 4.6641 1.9375 0.65625 3.793 0.52344 5.2266-0.37891 3.1758-2 3.5547-7.3359 0.83594-11.652zm-32.766-29.844c4.9727 7.8984 3.543 17.773-3.1875 22.016-2.0781 1.3086-4.4258 1.9297-6.8203 1.9297-5.3633 0-10.973-3.1094-14.41-8.5703-4.9727-7.8984-3.543-17.773 3.1875-22.016 6.7344-4.2344 16.258-1.2578 21.23 6.6406zm-6.3594 4.0039c-1.9922-3.168-5.2031-5.0664-8.0195-5.0664-1.0234 0-1.9961 0.25-2.8438 0.78125-3.168 1.9961-3.5508 7.332-0.83203 11.648 2.7188 4.3164 7.6953 6.2812 10.863 4.2852 3.168-1.9922 3.5508-7.3281 0.83203-11.648zm1.9062 44.273c2.332 3.7031 3.3516 7.9648 2.8711 11.996-0.51562 4.3281-2.668 7.8867-6.0586 10.02-2.0625 1.2969-4.4023 1.957-6.8438 1.957-1.5742 0-3.1914-0.27344-4.8086-0.82422-3.8438-1.3086-7.2461-4.0664-9.5781-7.7734-2.332-3.7031-3.3516-7.9648-2.8711-11.996 0.51563-4.3242 2.668-7.8867 6.0586-10.02 6.7344-4.2344 16.258-1.2578 21.23 6.6406zm-6.3594 4.0078v0c-1.9922-3.168-5.2031-5.0664-8.0195-5.0664-1.0234 0-1.9961 0.25-2.8438 0.78125-1.4336 0.90234-2.3555 2.5195-2.5977 4.5508-0.27734 2.3281 0.34766 4.8477 1.7656 7.0977 1.418 2.25 3.418 3.9062 5.6367 4.6602 1.9375 0.65625 3.793 0.52734 5.2266-0.37891 1.4336-0.90234 2.3555-2.5195 2.6016-4.5508 0.27344-2.3242-0.35547-4.8477-1.7695-7.0938zm103.21-40.359c-4.9727-7.8984-3.543-17.777 3.1875-22.016 3.3906-2.1328 7.5312-2.5352 11.652-1.1328 3.8438 1.3086 7.2461 4.0703 9.5781 7.7734 2.332 3.7031 3.3516 7.9648 2.8711 11.996-0.51562 4.3281-2.668 7.8867-6.0586 10.02-2.0625 1.2969-4.3984 1.957-6.8438 1.957-1.5742 0-3.1914-0.27344-4.8086-0.82422-3.8438-1.3086-7.2461-4.0703-9.5781-7.7734zm6.3633-4.0039c1.418 2.25 3.418 3.9062 5.6367 4.6602 1.9375 0.66016 3.793 0.52344 5.2266-0.37891s2.3555-2.5195 2.6016-4.5508c0.27734-2.3281-0.35156-4.8477-1.7656-7.0977-1.418-2.25-3.4219-3.9062-5.6367-4.6602-0.80859-0.27344-1.6055-0.41016-2.3633-0.41016-1.0547 0-2.0312 0.26562-2.8633 0.78906-3.1758 1.9961-3.5547 7.332-0.83594 11.648z"/>
 </g>
</svg>
