<?xml version="1.0" encoding="UTF-8"?>
<svg width="752pt" height="752pt" version="1.1" viewBox="0 0 752 752" xmlns="http://www.w3.org/2000/svg">
 <defs>
  <clipPath id="a">
   <path d="m256 139.21h240v473.58h-240z"/>
  </clipPath>
 </defs>
 <g clip-path="url(#a)">
  <path d="m456.8 434.25c10.039-17.273 16.852-36.055 16.852-55.215 0-32.867-20.441-72.93-42.398-106.48l19.84-29.961c10.133-1.8672 21.301-10.504 29.566-22.984 12.645-19.09 13.742-39.875 2.5039-47.316-11.238-7.4453-29.945 1.6836-42.586 20.773-8.2656 12.48-11.855 26.133-9.6211 36.191l-14.48 21.867c-10.223-14.117-19.84-26.105-26.867-34.523-0.47656-0.57031-0.98828-1.1055-1.5273-1.6055v-10.238c11.965-2.5859 18.027-10.109 18.027-22.395-0.003906-17.375-12.645-43.152-30.109-43.152-17.461 0-30.105 25.777-30.105 43.152 0 12.285 6.0625 19.809 18.027 22.395v10.238c-0.53906 0.5-1.0508 1.0352-1.5273 1.6055-7.0273 8.418-16.645 20.406-26.867 34.523l-12.918-19.508c6.4648-9.957 6.5078-22.82-0.11719-32.824-4.418-6.6719-11.184-11.215-19.055-12.789-7.8555-1.5742-15.879 0.003906-22.578 4.4453-13.84 9.1641-17.684 27.82-8.5664 41.59 6.625 10.004 18.492 14.98 30.176 12.918l18.277 27.602c-21.957 33.551-42.398 73.613-42.398 106.48 0 19.16 6.8164 37.938 16.852 55.215l-36.309 54.832c-1.7812 2.6914-2.4102 5.9141-1.7656 9.0742s2.4766 5.8867 5.168 7.6641c2.0039 1.3242 4.2969 2.0117 6.6445 2.0117 0.80859 0 1.6211-0.082032 2.4297-0.24609 3.1602-0.64453 5.8867-2.4766 7.6641-5.168l30.824-46.547c18.32 23.711 40.418 42.898 54.066 53.711v91.125c0 6.6602 5.418 12.078 12.078 12.078s12.078-5.418 12.078-12.078v-91.125c13.648-10.812 35.746-30 54.066-53.711l30.824 46.547c1.7812 2.6875 4.5039 4.5234 7.6641 5.168 0.80859 0.16406 1.6211 0.24609 2.4297 0.24609 2.3477 0 4.6445-0.6875 6.6445-2.0117 2.6875-1.7812 4.5234-4.5039 5.168-7.6641s0.015625-6.3828-1.7656-9.0742zm-18.648-202.24c0.62109-0.9375 0.78906-2.1016 0.46094-3.1758-2.4023-7.8516 0.91016-20.555 8.2344-31.617 10.84-16.371 25.652-22.973 32.168-18.656s6.2188 20.531-4.6211 36.898c-7.3281 11.062-17.734 19.07-25.898 19.922-1.1172 0.11719-2.1211 0.72656-2.7422 1.6641l-19.02 28.723c-1.8633-2.7539-3.7266-5.4492-5.5859-8.0898zm-69.977-34.137c-10.484-1.3906-14.762-5.8867-14.762-15.508 0-15.23 11.168-35.637 22.586-35.637 11.422 0 22.59 20.406 22.59 35.633 0 9.6211-4.2773 14.113-14.762 15.508-1.8672 0.25-3.2656 1.8398-3.2656 3.7266v9.2383c-1.4727-0.39062-3.0039-0.59766-4.5625-0.59766s-3.0898 0.20703-4.5625 0.59766v-9.2383c0.003906-1.8828-1.3945-3.4766-3.2617-3.7227zm-60.867 40.777c-0.89453-1.3516-2.5586-1.9766-4.1211-1.5508-9.3906 2.5547-19.289-1.1484-24.629-9.2109-6.8281-10.312-3.9336-24.297 6.4492-31.172 5.0312-3.332 11.059-4.5234 16.953-3.3398 5.8906 1.1797 10.957 4.5742 14.262 9.5703 5.3398 8.0625 4.8867 18.621-1.1328 26.27-1.0039 1.2734-1.0742 3.0469-0.17969 4.3984l15.938 24.062c-1.8555 2.6367-3.7188 5.3359-5.5859 8.0898zm-34.547 259.62c-0.67188 1.0156-1.7031 1.7109-2.8945 1.9531-1.1914 0.24219-2.4102 0.007813-3.4258-0.66797-1.0156-0.67188-1.7109-1.7031-1.9531-2.8945-0.24219-1.1953-0.003906-2.4102 0.66797-3.4258l34.379-51.914c1.7812 2.7617 3.6328 5.4805 5.5469 8.1484zm103.24 107c-2.5156 0-4.5625-2.0469-4.5625-4.5625v-87.035c1.4922 0.39844 3.0273 0.60938 4.5625 0.60938s3.0664-0.20703 4.5625-0.60938v87.035c0 2.5156-2.0469 4.5625-4.5625 4.5625zm6.2852-100.69c-3.6992 2.9062-8.8672 2.9062-12.562 0-11.086-8.707-32.422-26.699-50.742-49.387-21.973-27.211-33.113-52.836-33.113-76.16 0-53.27 57.555-127.97 82.301-157.62 1.9453-2.332 4.8008-3.668 7.8359-3.668 3.0312 0 5.8906 1.3359 7.8359 3.668 24.746 29.645 82.301 104.35 82.301 157.62 0 23.328-11.141 48.953-33.113 76.16-18.324 22.688-39.656 40.68-50.742 49.387zm105.23-7.9219c-0.24219 1.1953-0.9375 2.2227-1.9531 2.8945s-2.2344 0.91016-3.4258 0.66797c-1.1953-0.24219-2.2227-0.9375-2.8945-1.9531l-32.32-48.805c1.9141-2.668 3.7656-5.3867 5.5469-8.1484l34.379 51.914c0.67578 1.0195 0.91016 2.2344 0.66797 3.4297zm-123.27-226.36c-10.316 1.0586-18.742 3.2969-23.992 4.9922-1.5508 0.5-2.6055 1.9453-2.6055 3.5781v15.98c0 1.2617 0.63672 2.4375 1.6875 3.1328 0.625 0.41406 1.3477 0.625 2.0742 0.625 0.49609 0 1-0.097657 1.4688-0.29688 0.089844-0.039062 9.1641-3.8359 22.195-5.3945 1.8906-0.22656 3.3125-1.8281 3.3125-3.7305v-15.137c0-1.0625-0.44922-2.0781-1.2383-2.7891-0.78906-0.72266-1.8438-1.0625-2.9023-0.96094zm-3.375 15.594c-6.6055 1.0039-12.031 2.4609-15.707 3.625v-7.875c4.0352-1.1797 9.4023-2.4805 15.707-3.3633zm50.887-10.602c-5.2539-1.6953-13.68-3.9336-23.992-4.9922-1.0586-0.10156-2.1133 0.23828-2.9023 0.94922-0.78906 0.71094-1.2383 1.7266-1.2383 2.7891v15.137c0 1.9023 1.4219 3.5039 3.3125 3.7305 13.027 1.5586 22.102 5.3594 22.172 5.3867 0.48047 0.20703 0.98828 0.3125 1.4961 0.3125 0.72266 0 1.4414-0.20703 2.0625-0.61719 1.0586-0.69531 1.6953-1.875 1.6953-3.1445v-15.98c0-1.625-1.0547-3.0703-2.6055-3.5703zm-4.9141 14.227c-3.6758-1.1641-9.1016-2.6211-15.707-3.625v-7.6133c6.3047 0.88281 11.668 2.1836 15.707 3.3633zm-42.598 13.125c-10.316 1.0586-18.742 3.2969-23.992 4.9922-1.5508 0.5-2.6055 1.9453-2.6055 3.5781v15.98c0 1.2617 0.63281 2.4375 1.6836 3.1328 0.625 0.41406 1.3477 0.625 2.0781 0.625 0.49609 0 0.99609-0.097657 1.4648-0.29688 0.089844-0.039062 9.1992-3.8438 22.199-5.3984 1.8906-0.22656 3.3125-1.8281 3.3125-3.7305l0.003907-15.145c0-1.0625-0.44922-2.0781-1.2383-2.7891-0.79297-0.71094-1.8477-1.0547-2.9062-0.94922zm-3.375 15.594c-6.6055 1.0039-12.031 2.4609-15.707 3.625v-7.875c4.0352-1.1797 9.4023-2.4805 15.707-3.3633zm50.887-10.602c-5.2539-1.6953-13.68-3.9336-23.992-4.9922-1.0586-0.10938-2.1133 0.23828-2.9023 0.94922-0.78906 0.71094-1.2383 1.7266-1.2383 2.7891v15.137c0 1.9023 1.4219 3.5039 3.3125 3.7305 13 1.5586 22.109 5.3633 22.195 5.3984 0.47266 0.20312 0.97266 0.30078 1.4727 0.30078 0.72656 0 1.4492-0.21094 2.0703-0.62109 1.0547-0.69531 1.6875-1.875 1.6875-3.1367v-15.98c0-1.6289-1.0547-3.0742-2.6055-3.5742zm-4.9141 14.227c-3.6719-1.1641-9.0977-2.6211-15.707-3.625v-7.6133c6.3047 0.88281 11.668 2.1836 15.707 3.3633zm-42.598 13.125c-10.32 1.0586-18.742 3.2969-23.992 4.9922-1.5508 0.5-2.6055 1.9453-2.6055 3.5781v15.98c0 1.2617 0.63281 2.4375 1.6836 3.1328 0.625 0.41406 1.3477 0.625 2.0781 0.625 0.49609 0 0.99609-0.097657 1.4648-0.29688 0.089844-0.039062 9.1992-3.8438 22.199-5.3984 1.8906-0.22656 3.3125-1.8281 3.3125-3.7305v-15.137c0-1.0625-0.44922-2.0781-1.2383-2.7891-0.78906-0.71875-1.8438-1.0625-2.9023-0.95703zm-3.375 15.594c-6.6055 1.0039-12.031 2.4609-15.707 3.625v-7.875c4.0352-1.1797 9.4023-2.4805 15.707-3.3633zm50.887-10.602c-5.25-1.6914-13.672-3.9336-23.992-4.9922-1.0586-0.10547-2.1133 0.23828-2.9023 0.94922-0.78906 0.71094-1.2383 1.7266-1.2383 2.7891v15.137c0 1.9023 1.4219 3.5039 3.3125 3.7305 13 1.5586 22.109 5.3633 22.195 5.3984 0.47266 0.20312 0.97266 0.30078 1.4727 0.30078 0.72656 0 1.4492-0.21094 2.0703-0.62109 1.0547-0.69531 1.6875-1.875 1.6875-3.1367v-15.98c0-1.6289-1.0547-3.0742-2.6055-3.5742zm-4.9141 14.227c-3.6719-1.1641-9.0977-2.6211-15.707-3.625v-7.6133c6.3047 0.88672 11.672 2.1836 15.707 3.3633zm5.8281 89.812c-1.0508-0.69531-2.3867-0.81641-3.5469-0.32422-0.089844 0.039063-9.1641 3.8359-22.195 5.3945-1.8906 0.22656-3.3125 1.8281-3.3125 3.7305v15.137c0 1.0625 0.44922 2.0781 1.2383 2.7891 0.69531 0.625 1.5938 0.96875 2.5195 0.96875 0.12891 0 0.25391-0.007812 0.38281-0.019531 10.316-1.0586 18.742-3.2969 23.992-4.9922 1.5508-0.5 2.6055-1.9453 2.6055-3.5781v-15.98c0.007813-1.2539-0.62891-2.4297-1.6836-3.125zm-5.8281 16.332c-4.0352 1.1797-9.4023 2.4805-15.707 3.3633v-7.6133c6.6055-1.0039 12.031-2.4609 15.707-3.625zm-41.766-11.262c-13.027-1.5586-22.102-5.3594-22.172-5.3867-1.1641-0.50391-2.5-0.39063-3.5586 0.30469s-1.6953 1.875-1.6953 3.1445v15.98c0 1.6328 1.0508 3.0781 2.6055 3.5781 5.25 1.6914 13.676 3.9336 23.992 4.9922 0.12891 0.011718 0.25391 0.019531 0.38281 0.019531 0.92578 0 1.8242-0.34375 2.5195-0.96875 0.78906-0.71094 1.2383-1.7266 1.2383-2.7891v-15.137c0-1.9102-1.4219-3.5117-3.3125-3.7383zm-4.207 14.625c-6.3047-0.88281-11.672-2.1836-15.707-3.3633v-7.875c3.6758 1.1641 9.1016 2.6211 15.707 3.625zm51.801-52.039c-1.0508-0.69531-2.3867-0.81641-3.5469-0.32422-0.089844 0.039063-9.1641 3.8359-22.195 5.3945-1.8906 0.22656-3.3125 1.8281-3.3125 3.7305v15.137c0 1.0625 0.44922 2.0781 1.2383 2.7891 0.69531 0.625 1.5938 0.96875 2.5195 0.96875 0.12891 0 0.25391-0.007812 0.38281-0.019531 10.324-1.0586 18.746-3.2969 23.992-4.9922 1.5508-0.5 2.6055-1.9453 2.6055-3.5781v-15.98c0.007813-1.2539-0.62891-2.4297-1.6836-3.125zm-5.8281 16.332c-4.0352 1.1797-9.3984 2.4766-15.707 3.3633v-7.6133c6.6055-1.0039 12.031-2.4609 15.707-3.625zm-41.766-11.262c-13.027-1.5586-22.102-5.3594-22.172-5.3867-1.1641-0.50391-2.5-0.39063-3.5586 0.30469s-1.6953 1.875-1.6953 3.1445v15.98c0 1.6328 1.0508 3.0781 2.6055 3.5781 5.2461 1.6914 13.672 3.9336 23.992 4.9922 0.12891 0.011718 0.25391 0.019531 0.38281 0.019531 0.92578 0 1.8242-0.34375 2.5195-0.96875 0.78906-0.71094 1.2383-1.7266 1.2383-2.7891v-15.137c0-1.9102-1.4219-3.5117-3.3125-3.7383zm-4.207 14.629c-6.3086-0.88672-11.672-2.1836-15.707-3.3633v-7.875c3.6758 1.1641 9.1016 2.6211 15.707 3.625zm51.801-52.043c-1.0508-0.69531-2.3867-0.81641-3.5469-0.32422-0.089844 0.039063-9.1641 3.8359-22.195 5.3945-1.8906 0.22656-3.3125 1.8281-3.3125 3.7305v15.137c0 1.0625 0.44922 2.0781 1.2383 2.7891 0.69531 0.625 1.5938 0.96875 2.5195 0.96875 0.12891 0 0.25391-0.007812 0.38281-0.019531 10.316-1.0586 18.742-3.2969 23.992-4.9922 1.5508-0.5 2.6055-1.9453 2.6055-3.5781v-15.98c0.007813-1.2539-0.62891-2.4297-1.6836-3.125zm-5.8281 16.332c-4.0352 1.1797-9.4023 2.4805-15.707 3.3633v-7.6133c6.6055-1.0039 12.031-2.4609 15.707-3.625zm-41.766-11.262c-13.027-1.5586-22.102-5.3594-22.172-5.3867-1.1641-0.50391-2.5-0.39063-3.5586 0.30469s-1.6953 1.875-1.6953 3.1445v15.98c0 1.6328 1.0508 3.0781 2.6055 3.5781 5.2539 1.6953 13.68 3.9336 23.992 4.9922 0.12891 0.011718 0.25391 0.019531 0.38281 0.019531 0.92578 0 1.8242-0.34375 2.5195-0.96875 0.78906-0.71094 1.2383-1.7266 1.2383-2.7891v-15.137c0-1.9102-1.4219-3.5117-3.3125-3.7383zm-4.207 14.629c-6.3047-0.88281-11.668-2.1836-15.707-3.3633v-7.875c3.6758 1.1641 9.1016 2.6211 15.707 3.625z"/>
 </g>
</svg>
