<?xml version="1.0" encoding="UTF-8"?>
<svg width="752pt" height="752pt" version="1.1" viewBox="0 0 752 752" xmlns="http://www.w3.org/2000/svg">
 <path d="m449.04 353.13c-4.6562 14.477-19.648 22.746-33.605 18.613-13.961-3.6211-22.23-19.129-18.613-33.605 4.6562-14.477 19.648-22.746 33.605-18.613 14.48 4.6484 22.754 19.648 18.613 33.605zm-5.1641-102.38c9.3047-2.582 14.473-11.887 11.887-21.199-2.582-9.3047-11.887-14.473-21.199-11.887-8.7891 2.582-13.961 12.406-11.887 21.199 2.582 9.3047 11.891 14.469 21.199 11.887zm-125.12-21.715c-18.613 1.5469-32.059 18.094-30.504 36.191 2.0703 18.102 18.094 31.539 36.191 30.504 18.613-1.5469 32.059-18.094 30.504-36.191-1.5508-18.613-18.098-32.055-36.191-30.504zm-102.59 196.8c-0.51562-5.1719-1.3203-7.5742-0.29297-12.223 2.0703-11.375 0-15.516-11.375-19.648-3.6172-1.0391-6.7266-2.0703-10.344-4.1328-9.3047-5.1719-11.375-10.859-5.6875-20.68 9.3047-16.543 20.164-33.09 29.473-50.148 3.1016-5.1719 2.0703-13.441 2.0703-20.164 0-7.2344-3.6172-15.516-2.0703-22.746 4.1328-14.477 8.7891-28.953 14.992-42.395 14.477-32.574 41.363-52.223 74.453-61.008 37.746-10.344 77.551-14.477 115.29-3.6172 50.145 14.465 104.95 58.406 104.95 120.45 0 20.68-4.6562 42.91-13.441 61.527-25.336 53.766-29.988 78.586-16.031 135.97 0 0 0 5.1719 8.7891 19.133 0 0 8.8242 10.297 20.711 24.168-41.102 36.414-95.129 58.559-154.36 58.559-15.387 0-30.41-1.5312-44.961-4.375 1.8984-4.2891 3.9883-9.2461 4.8984-14.234-1.0391-5.6875-1.5547-11.375-3.1016-16.031-5.1719-16.543-11.375-33.09-17.578-49.633-3.1016-9.3047-11.375-9.3047-20.164-8.2695-13.441 1.0391-27.918 3.1016-41.363 1.5547-20.68-2.0703-25.336-10.859-24.82-31.535 0.51563-5.6875-1.0391-13.961-4.6562-18.094-7.2344-7.2344-4.6562-12.406 0-18.613-4.5391 1.2383-5.3789-3.8203-5.3789-3.8203zm179.11-189.56 14.992 4.1328c0 1.0391 0.51563 2.0703 0.51563 2.582 0.51562 1.0391 0.51562 2.0703 1.0391 2.582l-10.859 11.887c2.582 4.1328 4.6562 7.2344 8.2695 10.344l13.441-8.2695c1.5547 1.0391 3.1016 2.0703 4.6562 2.582l0.51563 15.516c4.1328 1.0391 8.2734 1.5547 12.926 1.5547l4.1328-14.992c1.0391 0 2.0703-0.51562 2.582-0.51562 1.0391-0.51563 2.0703-0.51563 2.582-1.0391l11.887 10.859c4.1328-2.582 7.2344-4.6562 10.344-8.2695l-8.2695-13.441c1.0391-1.5547 2.0703-3.1016 2.582-4.6562l15.516-0.51562c1.0391-4.1328 1.5547-8.2734 1.5547-12.926l-14.992-3.6172c0-1.0391-0.51563-2.0703-0.51563-2.582-0.51562-1.0391-0.51562-2.0703-1.0391-2.582l10.859-11.887c-2.582-4.1328-4.6562-7.2344-8.2695-10.344l-13.441 8.2734c-1.5547-1.0391-3.1016-2.0703-4.6562-2.582l-0.51563-15.516c-4.1328-1.0391-8.2734-1.5547-12.926-1.5547l-4.1328 14.992c-1.0391 0-2.0703 0.51562-2.582 0.51562-1.0391 0.51562-2.0703 0.51562-2.582 1.0391l-11.383-10.859c-4.1328 2.582-7.2344 4.6562-10.344 8.2734l8.2695 13.441c-1.0391 1.5547-2.0703 3.1016-2.582 4.6562h-16.027c-1.0312 4.1289-1.5469 8.2656-1.5469 12.918zm-50.156 92.023c6.2031-2.582 12.926-5.1719 18.094-9.8203l-5.6875-15.516c4.6562-4.1328 8.2734-8.2734 11.375-13.441l16.543 3.1016c3.1016-6.2031 4.6562-12.926 6.2031-19.648l-14.992-7.2344v-8.7891c-0.51562-3.1016-1.0391-5.6875-1.5547-8.2734l13.441-9.8203c-2.582-6.2031-5.1719-12.926-9.8203-18.094l-15.516 5.6875c-4.1328-4.6562-8.2734-8.2695-13.441-11.375l3.1016-16.543c-6.2031-3.1016-12.926-4.6562-19.648-6.2031l-7.2344 14.992h-8.7891c-3.1016 0.51562-5.6875 1.0391-8.2734 1.5547l-9.8203-13.441c-6.2031 2.582-12.926 5.1719-18.094 9.8203l5.6875 15.516c-4.6562 4.1328-8.2734 8.2695-11.375 13.441l-16.543-3.1016c-3.1016 6.2031-4.6562 12.926-6.2031 19.648l14.992 7.2344v8.7891c0.51562 3.1016 1.0391 5.6875 1.5547 8.2734l-13.441 9.8203c2.582 6.2031 5.1719 12.926 9.8203 18.094l15.512-5.6875c4.1328 4.6562 8.2734 8.2734 13.441 11.375l-3.1016 16.031c5.6875 3.6172 12.93 5.6836 19.648 6.7188l7.2344-14.992h8.7891c3.1016-0.51562 5.6875-1.0391 8.2734-1.5547zm139.6 53.266-18.094-18.613c0.51562-1.5547 1.0391-2.582 1.5547-4.1328 0.51562-1.5547 1.0391-3.1016 1.0391-4.6562l24.301-6.2031c0.51563-6.7266-0.51562-13.441-2.582-20.68l-25.336-0.51562c-1.0391-2.582-2.582-5.1719-4.1328-7.2344l12.926-21.715c-4.6562-4.6562-9.8203-9.3047-16.031-12.926l-18.613 17.059c-1.5547-0.51562-2.582-1.0391-4.1328-1.5547-1.5547-0.51562-3.1016-1.0391-4.6562-1.0391l-6.2031-24.301c-6.7266-0.51563-13.441 0.51562-20.68 2.582v26.363c-2.582 1.0391-5.1719 2.582-7.2344 4.1328l-21.715-12.926c-4.6445 4.1406-8.7891 9.8281-12.406 15.52l17.059 18.613c-0.51562 1.5547-1.0391 2.582-1.5547 4.1328-0.51562 1.5547-1.0391 3.1016-1.0391 4.6562l-24.301 5.6875c-0.51562 6.7266 0.51562 13.441 2.582 20.68l25.336 0.51562c1.0391 2.582 2.582 5.1719 4.1328 7.2344l-12.926 21.715c4.6562 4.6562 9.8203 9.3047 16.031 12.926l18.613-17.059c1.5547 0.51562 2.582 1.0391 4.1328 1.5547 1.5547 0.51563 3.1016 1.0391 4.6562 1.0391l6.2031 24.301c6.7266 0.51562 13.441-0.51562 20.68-2.582l0.51562-25.336c2.582-1.0391 5.1719-2.582 7.2344-4.1328l21.715 12.926c4.6523-4.6562 9.3086-9.8281 12.926-16.031z"/>
</svg>
