<?xml version="1.0" encoding="UTF-8"?>
<svg width="752pt" height="752pt" version="1.1" viewBox="0 0 752 752" xmlns="http://www.w3.org/2000/svg">
 <defs>
  <clipPath id="a">
   <path d="m148 139.21h456v473.58h-456z"/>
  </clipPath>
 </defs>
 <path d="m414.93 285.8c0 4.1523-3.3672 7.5156-7.5195 7.5156-4.1484 0-7.5156-3.3633-7.5156-7.5156s3.3672-7.5156 7.5156-7.5156c4.1523 0 7.5195 3.3633 7.5195 7.5156"/>
 <path d="m400.86 250.15c0.097656-0.019532 9.9141-1.625 16.703 3.1602 0.65625 0.46484 1.4141 0.6875 2.1602 0.6875 1.1797 0 2.3438-0.55469 3.0742-1.5938 1.1953-1.6953 0.78906-4.043-0.90625-5.2383-9.3789-6.6094-21.805-4.5156-22.328-4.4219-2.0391 0.35937-3.3984 2.3008-3.0469 4.3438 0.35938 2.043 2.3047 3.4062 4.3438 3.0625z"/>
 <path d="m339.75 285.8c0 4.1523-3.3672 7.5156-7.5156 7.5156-4.1523 0-7.5195-3.3633-7.5195-7.5156s3.3672-7.5156 7.5195-7.5156c4.1484 0 7.5156 3.3633 7.5156 7.5156"/>
 <path d="m340.08 242.74c-0.52344-0.09375-12.949-2.1875-22.328 4.4219-1.6953 1.1953-2.1055 3.5391-0.90625 5.2383 0.73047 1.0391 1.8945 1.5938 3.0742 1.5938 0.74609 0 1.5039-0.22266 2.1602-0.6875 6.7617-4.7656 16.531-3.1875 16.699-3.1602 2.0352 0.35937 3.9844-1.0078 4.3477-3.0508 0.36328-2.043-1-3.9961-3.0469-4.3555z"/>
 <path d="m382.12 306.61c1.9961-0.56641 3.1562-2.6445 2.5938-4.6406-0.56641-1.9961-2.6445-3.1602-4.6406-2.5938-6.8203 1.9297-13.684 1.9297-20.504 0-2-0.56641-4.0742 0.59766-4.6406 2.5938-0.56641 1.9961 0.59766 4.0742 2.5938 4.6406 4.0742 1.1523 8.2148 1.7383 12.301 1.7383 4.082 0 8.2227-0.58594 12.297-1.7383z"/>
 <g clip-path="url(#a)">
  <path d="m603.76 593.09c-1.6133-7.3711-5.4531-14.293-11.66-20.965l2.3867 0.16406c1.332 0.09375 2.6055-0.52734 3.3594-1.625 0.75-1.0977 0.86719-2.5117 0.30078-3.7188-4.4648-9.5234-11.434-17.637-20.789-24.234l1.1758-0.035156c1.418-0.042969 2.6914-0.88281 3.293-2.168 0.60156-1.2852 0.42578-2.8008-0.45312-3.9141-7.9453-10.082-17.082-16.273-27.246-18.48l3.5586-4.0742c0.92578-1.0586 1.1836-2.5469 0.66406-3.8555-0.51953-1.3086-1.7227-2.2188-3.125-2.3555-7.5977-0.75-14.176-0.65625-19.973 0.27344l-0.003906-266.4 19.664-30.988c0.67578-1.0664 0.77344-2.4023 0.25391-3.5547l-29.5-65.652-0.035156-0.078124c-0.082031-0.18359-0.18359-0.35938-0.29297-0.52344-0.027344-0.042969-0.0625-0.082031-0.09375-0.125-0.097657-0.13672-0.20703-0.26953-0.32031-0.39062-0.046875-0.046875-0.089844-0.09375-0.13672-0.13672-0.125-0.12109-0.26172-0.23047-0.40234-0.33203-0.035156-0.027344-0.070312-0.054687-0.10937-0.082031-0.17578-0.11719-0.36719-0.21875-0.5625-0.30469-0.054688-0.023437-0.11328-0.042968-0.17188-0.0625-0.15234-0.058594-0.30859-0.10938-0.47266-0.14844-0.066406-0.015625-0.12891-0.03125-0.19922-0.042969-0.21484-0.042969-0.4375-0.070312-0.66797-0.070312s-0.45312 0.027343-0.67188 0.066406c-0.066406 0.011718-0.13281 0.027344-0.19922 0.042968-0.16016 0.039063-0.32031 0.085938-0.47266 0.14844-0.054688 0.023438-0.11328 0.039062-0.16797 0.0625-0.19531 0.085938-0.38281 0.1875-0.5625 0.30469-0.039062 0.023437-0.070312 0.054687-0.10938 0.082031-0.14062 0.10156-0.27344 0.21094-0.40234 0.33203-0.046875 0.046875-0.09375 0.089844-0.13672 0.13672-0.11719 0.12109-0.22266 0.25-0.32031 0.39062-0.03125 0.042968-0.066406 0.082031-0.09375 0.125-0.10938 0.16797-0.20703 0.33984-0.29297 0.52344l-0.035156 0.078125-29.5 65.652c-0.51953 1.1523-0.42188 2.4883 0.25391 3.5547l19.664 30.988v291.75c-5.1484-13.219-11.23-25.598-18.121-36.926 1.1992-2.3047 2.2656-4.543 3.1797-6.6094 2.9375-6.6445 1.4023-14.441-3.8203-19.406-29.34-27.906-60.203-46.285-94.273-56.137v-16.895c24.574-8.9688 43.945-28.512 52.094-42.094 2.2227-3.7031 4.293-8.1094 6.1914-13.105 11.016-0.16016 21.41-8.3281 25.969-20.812 5.7578-15.766-0.3125-32.898-13.531-38.199-0.24609-0.097656-0.48828-0.1875-0.73438-0.27344 0.40234-5.2969 0.66016-10.52 0.78125-15.645 9.082-4.4297 22.07-15.301 17.984-31.23-2.0703-8.0742-9.4141-16.727-23.309-23.957-5.375-21.516-14.719-38.574-27.805-50.695-15.934-14.766-37.449-22.254-63.934-22.254-26.488 0-48 7.4883-63.941 22.254-13.086 12.121-22.43 29.18-27.805 50.695-13.895 7.2305-21.238 15.887-23.309 23.961-4.0859 15.93 8.9023 26.801 17.984 31.23 0.12109 5.1172 0.37891 10.336 0.78125 15.641-0.24609 0.089843-0.49609 0.17578-0.74219 0.27734-13.219 5.2969-19.285 22.434-13.531 38.199 4.4805 12.277 15.117 20.582 26.062 20.801 1.8906 5.0781 3.9336 9.4961 6.1055 13.117 8.1484 13.578 27.512 33.117 52.082 42.09l-0.007813 16.898c-34.066 9.8477-64.934 28.23-94.273 56.137-5.2188 4.9648-6.7539 12.766-3.8203 19.406 0.91406 2.0703 1.9805 4.3086 3.1836 6.6133-4.0742 6.6992-7.8516 13.734-11.32 21.098-8.7773-8.3945-22.094-11.617-40.492-9.7969-1.3984 0.13672-2.6055 1.0469-3.125 2.3555s-0.26172 2.7969 0.66406 3.8555l3.5586 4.0742c-10.164 2.207-19.301 8.3984-27.246 18.48-0.87891 1.1133-1.0547 2.6289-0.45312 3.9141 0.59766 1.2852 1.8711 2.125 3.293 2.168l1.1758 0.035156c-9.3516 6.5938-16.32 14.711-20.789 24.234-0.56641 1.207-0.44922 2.6211 0.30078 3.7188 0.75 1.0977 2.0234 1.7188 3.3594 1.625l2.3867-0.16406c-6.207 6.6758-10.047 13.594-11.66 20.965-0.25 1.1406 0.046875 2.332 0.79688 3.2266 0.75 0.89063 1.8828 1.3945 3.043 1.332l5.0664-0.22656c-1.7109 3.0156-3.0273 6.5898-3.9805 10.77-0.25391 1.1172 0.011719 2.2852 0.72656 3.1797 0.71484 0.89453 1.793 1.4141 2.9375 1.4141h438.34c1.1445 0 2.2266-0.52344 2.9375-1.4141 0.71484-0.89453 0.98047-2.0664 0.72656-3.1797-0.95312-4.1797-2.2734-7.7539-3.9805-10.77l5.0664 0.22656c1.1562 0.0625 2.2891-0.44141 3.043-1.332 0.74219-0.89453 1.0352-2.0859 0.78516-3.2266zm-62.816 3.9414c0 4.543-3.6953 8.2344-8.2344 8.2344-0.019531 0-0.035156 0.003907-0.054687 0.003907h-24.488c-0.019531 0-0.035156-0.003907-0.054687-0.003907-2.5625 0-4.6484-2.0859-4.6484-4.6445 0-2.5625 2.0859-4.6484 4.6484-4.6484h19.668c2.0742 0 3.7578-1.6836 3.7578-3.7578s-1.6836-3.7578-3.7578-3.7578h-19.668c-2.5625 0-4.6484-2.0859-4.6484-4.6484s2.0859-4.6445 4.6484-4.6445h19.668c2.0742 0 3.7578-1.6836 3.7578-3.7578 0-2.0742-1.6836-3.7578-3.7578-3.7578h-19.668c-2.5625 0-4.6484-2.0859-4.6484-4.6484s2.0859-4.6484 4.6484-4.6484h19.668c2.0742 0 3.7578-1.6836 3.7578-3.7578 0-2.0742-1.6836-3.7578-3.7578-3.7578h-19.668c-2.5625 0-4.6484-2.0859-4.6484-4.6445 0-2.5625 2.0859-4.6484 4.6484-4.6484h0.14844 0.011719 0.011719 24.43c4.543 0 8.2344 3.6953 8.2344 8.2344zm-310.94-38.766h39.426v17.469h-43.977c1.3711-5.9688 2.8867-11.793 4.5508-17.469zm-6.1836 24.984h45.609v22.02h-49.395c1.0586-7.5312 2.3203-14.875 3.7852-22.02zm53.125-57.098c4.7227 2.5977 9.3984 4.6953 13.984 6.7461 7.9297 3.5508 16.129 7.2188 24.523 13.504 5.4922 4.1094 9.4922 14.02 13.734 24.512 4.8672 12.047 10.508 25.984 20.277 34.355h-72.516zm203.62 49.582h-10.371v-17.469h10.371c-0.082031 0.60547-0.14062 1.2148-0.14062 1.8398v13.789c0 0.625 0.058593 1.2344 0.14062 1.8398zm-17.891 29.535h-72.516c9.7695-8.3711 15.41-22.309 20.277-34.355 4.2383-10.492 8.2422-20.398 13.734-24.512 8.3945-6.2852 16.594-9.957 24.523-13.504 4.5859-2.0508 9.2617-4.1484 13.984-6.7461zm7.5156-22.02h13.965c2.4961 2.6484 6.0234 4.3164 9.9453 4.3164h2.4375c0.57422 1.7617 1.5391 3.3398 2.793 4.6484-2.0977 2.1875-3.3906 5.1445-3.3906 8.4062 0 1.6484 0.33203 3.2188 0.92969 4.6523h-26.676v-22.023zm26.348-29.301c0.57422 1.7578 1.5391 3.3398 2.7891 4.6484-2.0938 2.1875-3.3906 5.1445-3.3906 8.4062 0 3.2617 1.2969 6.2188 3.3906 8.4062-1.2539 1.3047-2.2188 2.8867-2.7891 4.6484h-2.4375c-3.3945 0-6.1602-2.7617-6.1602-6.1562v-13.789c0-3.3945 2.7617-6.1602 6.1602-6.1602zm31.188-310.26v9.7617c-3.6797-0.48828-7.375-0.48828-11.059 0v-9.7617c3.6797-0.59375 7.3789-0.59375 11.059 0zm0 27.125c-3.6797-0.48828-7.375-0.48828-11.059 0v-9.7617c3.6797-0.59375 7.3789-0.59375 11.059 0zm-11.059 7.6055c3.6797-0.59375 7.3789-0.59375 11.059 0v9.7617c-3.6797-0.48828-7.375-0.48828-11.059 0zm0 17.363c3.6758-0.59375 7.3789-0.59766 11.059 0v242.24h-11.059zm-19.75-87.391 21.52-47.891v58.199c0 2.0742 1.6836 3.7578 3.7578 3.7578s3.7578-1.6836 3.7578-3.7578l0.003907-58.199 21.52 47.891-17.766 28c-4.9961-0.90234-10.027-0.90234-15.023 0zm6.3203 330.66c-3.1602 1.3867-5.6172 4.0742-6.6992 7.3828h-2.4375c-3.918 0-7.4492 1.6641-9.9453 4.3164h-13.965v-29.203c0.76953-0.52734 1.5391-1.0703 2.3125-1.6367 5.6992-4.2031 10.426-9.9961 14.227-15.938 6.2812 10.805 11.809 22.57 16.508 35.078zm-29.926-220.16c-3.0078 8.2422-9.3984 14.164-16.227 15.566 3.7969-12.27 6.6758-27.172 8.3438-43.551 8.4922 4.4531 12.043 16.598 7.8828 27.984zm-6.3555-60.215c-0.007813-0.91406 0.003906-1.8477-0.015626-2.7539-0.058593-2.9766-0.85156-5.8203-2.2148-8.3438 0.58203-1.8594 2.1211-5.3867 5.6445-6.7422 3.3047-1.2656 6.1133-0.66797 7.6992-0.082031 0.74609 8.7617-6.0664 14.734-11.113 17.922zm-26.277-46.719c7.125 2.1797 13.219 4.668 18.297 7.3555-0.070313 0.60938-0.24609 1.1758-0.53906 1.6875-1.0586 1.832-3.1914 2.3477-4.3711 2.4922-2.3945 0.29297-5.1719-0.34766-7.6211-1.7617-4.2422-2.4453-6.6406-6.6797-5.7656-9.7734zm-70.859-65.227c42.895 0 70.73 20.645 82.852 61.371-18.48-7.3828-45.496-12.488-82.859-12.488-37.355 0-64.367 5.1016-82.844 12.488 12.117-40.727 39.953-61.371 82.852-61.371zm13.027 56.641c-2.0508 4.1328-7.1602 7.0977-13.039 7.0977s-10.984-2.9609-13.039-7.0977c4.207-0.15234 8.5469-0.23828 13.039-0.23828s8.832 0.085938 13.039 0.23828zm-89.668 18.359c-2.4492 1.4141-5.2227 2.0547-7.6211 1.7617-1.1797-0.14453-3.3164-0.66406-4.375-2.4961-0.29297-0.50781-0.46875-1.0703-0.53906-1.6758 5.0781-2.6836 11.168-5.1758 18.297-7.3555 0.87109 3.0898-1.5273 7.3203-5.7617 9.7656zm-19.184 1.6172c0.19922 0.48047 0.41797 0.95312 0.67969 1.4102 1.9648 3.3984 5.5938 5.6562 9.9648 6.1953 0.69531 0.085937 1.4023 0.12891 2.1133 0.12891 3.418 0 6.9648-0.98047 10.188-2.8398 7.2969-4.2109 10.992-11.91 9.2461-18.289 11.844-2.9922 26.074-5.1836 42.695-6.1914 2.2617 8.2266 10.734 14.227 20.93 14.227 10.199 0 18.672-6 20.93-14.227 16.621 1.0078 30.852 3.1992 42.695 6.1914-1.7461 6.3828 1.9492 14.082 9.2461 18.293 3.2227 1.8594 6.7695 2.8398 10.188 2.8398 0.71094 0 1.418-0.042969 2.1133-0.12891 4.3711-0.53906 8-2.7969 9.9648-6.1953 0.26562-0.45703 0.48438-0.93359 0.68359-1.418 4.2734 2.9766 7.4375 6.1055 9.5 9.2617-2.2109-0.10156-4.7383 0.18359-7.4492 1.2227-4.2344 1.625-6.8398 4.7109-8.418 7.5469-1.4258-1.0273-3.0078-1.8672-4.7227-2.4609-6.3516-2.1953-15.734-5.0391-27.637-7.5469 0.097656-0.37109 0.18359-0.74609 0.24609-1.1289 0.62109-3.9805-0.97266-8.125-4.3672-11.367-3.0781-2.9375-7.3984-4.9648-12.16-5.707-10.508-1.6406-19.699 3.3047-20.938 11.242-0.09375 0.59375-0.12891 1.1914-0.125 1.7891-6.2773-0.4375-12.863-0.69141-19.746-0.69141-6.8828 0-13.469 0.25391-19.746 0.69141 0.003906-0.59766-0.035157-1.1953-0.125-1.7891-1.2344-7.9375-10.43-12.879-20.938-11.238-10.504 1.6367-17.766 9.1328-16.527 17.07 0.058594 0.38281 0.14453 0.75781 0.24609 1.1289-11.895 2.5039-21.273 5.3477-27.621 7.543-1.7188 0.59375-3.3047 1.4375-4.7344 2.4688-1.5781-2.8398-4.1797-5.9258-8.4219-7.5547-2.7031-1.0391-5.2227-1.3242-7.4297-1.2266 2.0508-3.1562 5.207-6.2773 9.4766-9.25zm123.14 3.4805c-0.078125-0.42969-0.09375-0.85156-0.03125-1.2656 0.49609-3.1836 5.6914-6.0039 12.352-4.9688 3.2148 0.5 6.1758 1.8555 8.125 3.7188 0.93359 0.89062 2.4531 2.6953 2.1289 4.7695-0.042969 0.28516-0.13281 0.5625-0.24609 0.83594-6.793-1.2305-14.266-2.3086-22.328-3.0898zm-76.992 3.0898c-0.11328-0.27344-0.20312-0.55078-0.24609-0.83594-0.49609-3.1836 3.5977-7.4531 10.258-8.4883 6.6641-1.0352 11.855 1.7852 12.352 4.9688 0.066406 0.41406 0.046875 0.83594-0.03125 1.2656-8.0664 0.78125-15.535 1.8594-22.332 3.0898zm-58.574 10.832c1.5898-0.58594 4.3828-1.1719 7.6719 0.089844 3.5312 1.3555 5.0703 4.9102 5.6523 6.7617-1.3594 2.5156-2.1445 5.3516-2.2031 8.3203-0.015625 0.89453-0.003907 1.8125-0.015625 2.7109-5.0273-3.2109-11.824-9.2109-11.105-17.883zm4.7422 78.141c-4.168-11.41-0.59375-23.582 7.9414-28.012 1.8516 16.566 4.7617 31.469 8.4453 43.598-6.9062-1.3672-13.363-7.3047-16.387-15.586zm31.555 32.629c-7.6094-12.684-13.824-37.387-16.625-66.043-0.86719-10.129-1.2188-20.027-1.0391-29.41 0.085937-4.5234 3.0391-8.5664 7.3438-10.055 14.043-4.8516 43.406-12.996 82.258-12.996 38.859 0 68.227 8.1406 82.277 12.996 4.3047 1.4883 7.2578 5.5273 7.3438 10.051 0.17969 9.3867-0.16797 19.281-1.0391 29.41-1.7227 20.078-5.2539 37.977-10.039 51.535-0.046875 0.11328-0.085938 0.22656-0.12109 0.34375-1.9609 5.4922-4.125 10.266-6.4648 14.164-10.039 16.73-38.449 43.277-71.949 43.277-33.496 0.003907-61.906-26.539-71.945-43.273zm71.949 50.797c6.4648 0 12.75-0.91406 18.785-2.4922v15.414c-2.9805 1.9219-10.285 5.9883-18.793 5.9883-8.5117 0-15.816-4.0664-18.793-5.9844l0.007812-15.418c6.0312 1.5781 12.32 2.4922 18.793 2.4922zm-115.41 73.641c28.723-27.32 58.883-45.207 92.152-54.645 3.5234 2.3359 12.445 7.4258 23.25 7.4258 10.805 0 19.723-5.0898 23.25-7.4258 33.27 9.4375 63.43 27.324 92.152 54.645 2.9297 2.7852 3.7812 7.1758 2.125 10.922-3.8164 8.6367-10.266 20.328-19.289 26.984-7.4023 5.4609-14.695 8.7227-22.422 12.184-8.3047 3.7188-16.891 7.5625-25.957 14.348-7.168 5.3672-11.555 16.223-16.199 27.715-7.3867 18.27-15.02 37.164-33.664 37.164s-26.277-18.895-33.66-37.164c-4.6445-11.492-9.0273-22.344-16.199-27.715-9.0625-6.7852-17.652-10.629-25.957-14.348-7.7266-3.457-15.02-6.7227-22.422-12.184-9.0273-6.6602-15.473-18.352-19.289-26.984-1.6523-3.7461-0.80078-8.1367 2.1289-10.922zm12.703 43.957c0.76953 0.57031 1.5391 1.1094 2.3125 1.6367v29.203h-37.113c5.5039-17.031 12.367-32.66 20.574-46.777 3.8008 5.9414 8.5273 11.734 14.227 15.938zm-98.234 72.047c-0.57812-1.5117-2.0469-2.4844-3.6797-2.4141l-8.1367 0.36328c2.6523-6.6406 7.7773-13.012 15.543-19.34 1.2695-1.0352 1.7227-2.7695 1.1211-4.293-0.60156-1.5234-2.125-2.4922-3.7539-2.3672l-6.1172 0.41797c5.6562-8.8711 14.07-15.973 25.539-21.594 1.5508-0.76172 2.3867-2.4805 2.0195-4.168-0.36328-1.6875-1.832-2.9102-3.5586-2.9648l-6.0938-0.1875c7.125-6.9102 14.938-10.414 23.715-10.68 1.4531-0.042969 2.75-0.92188 3.332-2.2539 0.58203-1.332 0.34375-2.8828-0.61328-3.9766l-3.1914-3.6523c13.598-0.24219 22.93 3.0391 28.926 10.164-10.207 23.695-17.398 50.562-21.492 80.262l-50.633 0.003906c1.4297-4.0273 3.3672-6.9609 5.9414-9.0664 1.2539-1.0273 1.7109-2.7422 1.1328-4.2539zm417.92-2.4141c-1.6211-0.074219-3.1016 0.90234-3.6797 2.4141s-0.12109 3.2266 1.1328 4.25c2.5742 2.1055 4.5078 5.0391 5.9414 9.0664h-44.09c1.4844-2.4023 2.3516-5.2188 2.3516-8.2422v-43.25c0-7.8203-5.7344-14.309-13.211-15.527v-22.531c3.5117-0.65625 7.4023-0.94531 11.746-0.87109l-3.1875 3.6523c-0.95703 1.0938-1.1953 2.6445-0.61328 3.9766 0.58203 1.332 1.8789 2.2109 3.332 2.2539 8.7773 0.26172 16.59 3.7695 23.715 10.68l-6.0938 0.1875c-1.7266 0.050782-3.1953 1.2734-3.5586 2.9648-0.36328 1.6875 0.46875 3.4062 2.0195 4.168 11.473 5.6211 19.883 12.723 25.539 21.594l-6.1172-0.41797c-1.6289-0.125-3.1523 0.84375-3.7539 2.3672-0.60156 1.5234-0.14844 3.2578 1.1211 4.293 7.7656 6.332 12.891 12.699 15.543 19.34z"/>
 </g>
 <path d="m369.81 559.54c-9.2148 0-16.715 8.3828-16.715 18.688 0 10.305 7.4961 18.684 16.715 18.684 9.2148 0 16.715-8.3828 16.715-18.684 0-10.305-7.5-18.688-16.715-18.688zm0 29.852c-5.0703 0-9.1953-5.0078-9.1953-11.168 0-6.1602 4.125-11.168 9.1953-11.168s9.1953 5.0117 9.1953 11.168c0.003907 6.1602-4.125 11.168-9.1953 11.168z"/>
 <path d="m359.74 550.56c-1.1328-1.7383-3.4609-2.2266-5.2031-1.0938-3.0508 1.9883-8.2695-0.38672-11.398-5.1836-3.1289-4.8008-3.2031-10.535-0.15234-12.523 3.0469-1.9922 8.2695 0.38672 11.398 5.1875 1.1328 1.7383 3.4609 2.2305 5.2031 1.0938 1.7383-1.1328 2.2305-3.4648 1.0938-5.2031-5.5391-8.4922-15.117-11.734-21.801-7.375-6.6836 4.3594-7.5781 14.43-2.0352 22.926 3.875 5.9375 9.7227 9.3086 15.172 9.3086 2.3477 0 4.6172-0.625 6.6289-1.9375 1.7383-1.1328 2.2266-3.4609 1.0938-5.1992z"/>
 <path d="m350.42 507.32c-4.3711 0-7.9297-3.5547-7.9297-7.9297 0-2.0742-1.6836-3.7578-3.7578-3.7578s-3.7578 1.6836-3.7578 3.7578c0 8.5156 6.9297 15.445 15.445 15.445s15.445-6.9297 15.445-15.445-6.9297-15.445-15.445-15.445c-2.0742 0-3.7578 1.6836-3.7578 3.7578s1.6836 3.7578 3.7578 3.7578c4.3711 0 7.9297 3.5547 7.9297 7.9297s-3.5586 7.9297-7.9297 7.9297z"/>
 <path d="m318.26 502.72c-7.3906 0-13.406 6.0117-13.406 13.406 0 2.0742 1.6836 3.7578 3.7578 3.7578s3.7578-1.6836 3.7578-3.7578c0-3.2461 2.6406-5.8906 5.8906-5.8906 3.2461 0 5.8906 2.6406 5.8906 5.8906 0 3.2461-2.6406 5.8906-5.8906 5.8906-2.0742 0-3.7578 1.6836-3.7578 3.7578 0 2.0742 1.6836 3.7578 3.7578 3.7578 7.3906 0 13.406-6.0117 13.406-13.406s-6.0156-13.406-13.406-13.406z"/>
 <path d="m304.54 466.34c-2.4805 3.0078-3.2109 7.2305-2.0117 11.578 1.0859 3.9375 3.6445 7.7188 7.1992 10.645 4.1133 3.3867 8.8203 5.0977 13.078 5.0977 3.8711 0 7.375-1.4141 9.7266-4.2695 1.3203-1.6016 1.0898-3.9727-0.51172-5.293-1.6016-1.3203-3.9727-1.0898-5.2891 0.51172-1.9062 2.3125-7.3945 2.1211-12.223-1.8516-2.3359-1.9258-4.0625-4.418-4.7305-6.8438-0.31641-1.1484-0.66406-3.3008 0.56641-4.7969 1.2344-1.4961 3.4102-1.5703 4.5977-1.4766 2.5078 0.19141 5.2852 1.4062 7.6211 3.332 1.6055 1.3203 3.9727 1.0898 5.293-0.51172 1.3203-1.6016 1.0898-3.9727-0.51172-5.293-3.5547-2.9258-7.7539-4.7109-11.828-5.0234-4.4961-0.34766-8.5 1.1875-10.977 4.1953z"/>
 <path d="m351.89 474.41c7.8359 0 13.973-8.4336 13.973-19.203 0-2.0742-1.6836-3.7578-3.7578-3.7578s-3.7578 1.6836-3.7578 3.7578c0 6.8867-3.4023 11.688-6.457 11.688s-6.457-4.7969-6.457-11.688c0-6.8867 3.4023-11.688 6.457-11.688 2.0742 0 3.7578-1.6836 3.7578-3.7578 0-2.0742-1.6836-3.7578-3.7578-3.7578-7.8359 0-13.973 8.4375-13.973 19.203 0 10.77 6.1367 19.203 13.973 19.203z"/>
 <path d="m272.06 502.44c1.5234 1.4102 3.9023 1.3164 5.3125-0.20312 1.4102-1.5234 1.3164-3.9023-0.20312-5.3125-3.0703-2.8398-5.3555-6.3125-6.2773-9.5273-0.73438-2.5625-0.53125-4.707 0.55469-5.8789 1.0859-1.1719 3.207-1.5391 5.8164-1.0039 3.2773 0.67188 6.9141 2.6836 9.9844 5.5234 3.0703 2.8398 5.3555 6.3125 6.2773 9.5273 0.73438 2.5625 0.53125 4.707-0.55469 5.8789-1.4102 1.5234-1.3164 3.9023 0.20312 5.3125 0.72266 0.66797 1.6406 1 2.5508 1 1.0117 0 2.0195-0.40625 2.7578-1.2031 2.9141-3.1445 3.7383-7.9023 2.2656-13.055-1.3047-4.5625-4.2891-9.1719-8.3945-12.977-4.1094-3.8047-8.9336-6.4219-13.586-7.375-5.2461-1.0742-9.9258 0.11719-12.84 3.2617-2.9141 3.1445-3.7383 7.9023-2.2656 13.055 1.3086 4.5625 4.2891 9.1719 8.3984 12.977z"/>
 <path d="m322.84 458.21h0.007812c2.0742 0 3.7539-1.6758 3.7578-3.75 0.011719-6.4805 3.207-11.402 9.7617-15.035 1.8164-1.0078 2.4688-3.2969 1.4648-5.1094-1.0078-1.8125-3.2969-2.4688-5.1094-1.4648-9.0234 5.0078-13.609 12.273-13.629 21.594-0.011719 2.0742 1.668 3.7617 3.7461 3.7656z"/>
 <path d="m290.44 470.22c0.34766 0.097656 0.69922 0.14844 1.043 0.14844 1.6328 0 3.1328-1.0703 3.6094-2.7188 1.6758-5.8125 6.2188-10.086 13.891-13.062 1.9375-0.75 2.8945-2.9297 2.1445-4.8633-0.75-1.9375-2.9297-2.8945-4.8633-2.1445-9.8672 3.8281-16.059 9.8789-18.395 17.988-0.57422 1.9922 0.57812 4.0742 2.5703 4.6523z"/>
 <path d="m400.75 525.46c-6.6836-4.3594-16.262-1.1172-21.801 7.375-1.1328 1.7383-0.64453 4.0664 1.0938 5.2031 1.7383 1.1328 4.0664 0.64453 5.2031-1.0938 3.1289-4.8008 8.3516-7.1719 11.398-5.1875 3.0469 1.9883 2.9766 7.7227-0.15234 12.523-1.6367 2.5078-3.9258 4.4531-6.2852 5.3477-1.1484 0.43359-3.3438 0.99219-5.1133-0.16406-1.7383-1.1328-4.0664-0.64453-5.2031 1.0938-1.1328 1.7383-0.64453 4.0664 1.0938 5.1992 1.9336 1.2617 4.2031 1.8984 6.5977 1.8984 1.7227 0 3.5117-0.33203 5.2812-1 3.875-1.4648 7.3984-4.4023 9.9219-8.2734 5.543-8.4922 4.6484-18.562-2.0352-22.922z"/>
 <path d="m389.21 491.47c2.0742 0 3.7578-1.6836 3.7578-3.7578 0-2.0742-1.6836-3.7578-3.7578-3.7578-8.5156 0-15.445 6.9297-15.445 15.445 0 8.5156 6.9297 15.445 15.445 15.445s15.445-6.9297 15.445-15.445c0-2.0742-1.6836-3.7578-3.7578-3.7578s-3.7578 1.6836-3.7578 3.7578c0 4.3711-3.5547 7.9297-7.9297 7.9297-4.3711 0-7.9297-3.5547-7.9297-7.9297 0.003906-4.375 3.5586-7.9297 7.9297-7.9297z"/>
 <path d="m421.37 502.72c-7.3906 0-13.406 6.0117-13.406 13.406 0 7.3906 6.0117 13.406 13.406 13.406 2.0742 0 3.7578-1.6836 3.7578-3.7578 0-2.0742-1.6836-3.7578-3.7578-3.7578-3.2461 0-5.8906-2.6406-5.8906-5.8906 0-3.2461 2.6406-5.8906 5.8906-5.8906 3.2461 0 5.8906 2.6406 5.8906 5.8906 0 2.0742 1.6836 3.7578 3.7578 3.7578s3.7578-1.6836 3.7578-3.7578c0-7.3945-6.0117-13.406-13.406-13.406z"/>
 <path d="m411.77 472.46c1.3203 1.6016 3.6875 1.832 5.2891 0.51172 2.3359-1.9258 5.1172-3.1406 7.625-3.332 1.1914-0.09375 3.3672-0.019531 4.6016 1.4766 1.2344 1.4961 0.88672 3.6484 0.56641 4.7969-0.66797 2.4219-2.3945 4.918-4.7305 6.8438-4.832 3.9766-10.316 4.168-12.223 1.8516-1.3203-1.6016-3.6875-1.832-5.293-0.51172-1.6016 1.3203-1.832 3.6875-0.51172 5.293 2.3516 2.8555 5.8516 4.2695 9.7266 4.2695 4.2617 0 8.9688-1.7109 13.078-5.0977 3.5547-2.9258 6.1133-6.707 7.1992-10.645 1.1992-4.3477 0.46875-8.5664-2.0117-11.578-2.4766-3.0117-6.4805-4.543-10.977-4.1953-4.0703 0.3125-8.2734 2.0938-11.828 5.0234-1.6016 1.3242-1.832 3.6914-0.51172 5.293z"/>
 <path d="m387.74 474.41c7.8359 0 13.973-8.4336 13.973-19.203s-6.1367-19.203-13.973-19.203c-2.0742 0-3.7578 1.6836-3.7578 3.7578 0 2.0742 1.6836 3.7578 3.7578 3.7578 3.0547 0 6.457 4.7969 6.457 11.688 0 6.8867-3.4023 11.688-6.457 11.688-3.0547 0-6.457-4.7969-6.457-11.688 0-2.0742-1.6836-3.7578-3.7578-3.7578-2.0742 0-3.7578 1.6836-3.7578 3.7578-0.003906 10.77 6.1367 19.203 13.973 19.203z"/>
 <path d="m438.88 493.5c-1.4727 5.1484-0.64844 9.9062 2.2656 13.055 0.74219 0.80078 1.7461 1.2031 2.7578 1.2031 0.91406 0 1.8281-0.33203 2.5508-1 1.5234-1.4102 1.6133-3.7891 0.20312-5.3125-1.0859-1.1719-1.2891-3.3125-0.55469-5.8789 0.91797-3.2148 3.207-6.6875 6.2773-9.5273 3.0703-2.8398 6.707-4.8555 9.9844-5.5234 2.6133-0.53125 4.7305-0.16797 5.8164 1.0039 1.0859 1.1719 1.2891 3.3125 0.55469 5.8789-0.91797 3.2148-3.207 6.6875-6.2773 9.5273-1.5234 1.4102-1.6133 3.7891-0.20312 5.3125 1.4102 1.5234 3.7891 1.6133 5.3125 0.20312 4.1094-3.8047 7.0898-8.4141 8.3984-12.977 1.4727-5.1484 0.64844-9.9062-2.2656-13.055-2.9141-3.1445-7.5938-4.332-12.84-3.2617-4.6523 0.94922-9.4766 3.5703-13.586 7.375-4.1055 3.8008-7.0859 8.4102-8.3945 12.977z"/>
 <path d="m403.27 439.43c6.5547 3.6367 9.7461 8.5547 9.7617 15.035 0.003906 2.0742 1.6875 3.75 3.7578 3.75h0.007813c2.0742-0.003907 3.7539-1.6914 3.75-3.7656-0.019531-9.3203-4.6055-16.586-13.629-21.594-1.8164-1.0078-4.1016-0.35156-5.1094 1.4648-1.0078 1.8164-0.35156 4.1055 1.4609 5.1094z"/>
 <path d="m430.64 454.59c7.6719 2.9766 12.215 7.2461 13.891 13.062 0.47266 1.6445 1.9766 2.7188 3.6094 2.7188 0.34375 0 0.69531-0.046876 1.043-0.14844 1.9961-0.57422 3.1445-2.6602 2.5703-4.6523-2.3359-8.1055-8.5273-14.16-18.395-17.988-1.9336-0.75391-4.1133 0.21094-4.8633 2.1445s0.21094 4.1133 2.1445 4.8633z"/>
 <path d="m374.51 521.67c0 6.2656-9.3945 6.2656-9.3945 0 0-6.2617 9.3945-6.2617 9.3945 0"/>
 <path d="m374.52 480.2c0 6.2656-9.3945 6.2656-9.3945 0s9.3945-6.2656 9.3945 0"/>
</svg>
